<?xml version="1.0" encoding="UTF-8"?>
<svg version="1.1" xmlns="http://www.w3.org/2000/svg" width="666" height="375">
<path d="M0 0 C0.71930065 -0.0055344 1.4386013 -0.01106879 2.17969894 -0.0167709 C4.59052812 -0.03038685 7.00032368 -0.01540402 9.41113281 -0.00050354 C11.13920532 -0.00428639 12.86727481 -0.00978616 14.59533691 -0.01687622 C19.28956243 -0.03085256 23.98342231 -0.01964582 28.67762756 -0.00316501 C33.5871714 0.01067222 38.49669371 0.00422693 43.40625 0.0007019 C51.65142722 -0.00200127 59.89645896 0.0114846 68.14160156 0.03465271 C77.67788744 0.06126311 87.21393004 0.06300994 96.75024033 0.05126435 C105.91901516 0.0404899 115.08770189 0.04667102 124.25646973 0.06081963 C128.16070638 0.06658232 132.0648786 0.06649452 135.96911621 0.06175423 C140.56563219 0.05698637 145.16188135 0.06707816 149.75834656 0.08870888 C151.44662069 0.09427953 153.13492045 0.09473949 154.82319641 0.08975601 C157.12526685 0.08381229 159.42651898 0.09628991 161.72851562 0.11352539 C163.0175177 0.11595529 164.30651978 0.11838518 165.63458252 0.12088871 C169.09707776 0.52862161 170.55482325 0.90283601 172.86425781 3.50120544 C173.36762238 5.75167084 173.36762238 5.75167084 173.37219238 8.43540955 C173.38347168 9.4533107 173.39475098 10.47121185 173.40637207 11.5199585 C173.39827515 12.6358989 173.39017822 13.75183929 173.38183594 14.90159607 C173.38884521 16.07739731 173.39585449 17.25319855 173.40307617 18.46463013 C173.4176783 21.68997929 173.41423727 24.91467326 173.40155983 28.14001274 C173.39143874 31.51388308 173.40082301 34.88770938 173.40710449 38.26158142 C173.41438355 43.9276364 173.40478663 49.59348289 173.38574219 55.25950623 C173.36397267 61.81198856 173.37102388 68.36397308 173.39304781 74.91644335 C173.41119466 80.54032674 173.41376373 86.16406019 173.40329313 91.78796339 C173.39705415 95.14772674 173.39623334 98.50725604 173.40943909 101.86700439 C173.41956289 105.6119535 173.40416019 109.35593784 173.38183594 113.10081482 C173.38993286 114.21675522 173.39802979 115.33269562 173.40637207 116.48245239 C173.39509277 117.50035355 173.38381348 118.5182547 173.37219238 119.56700134 C173.37068428 120.45263512 173.36917618 121.33826889 173.36762238 122.25074005 C172.86425781 124.50120544 172.86425781 124.50120544 171.02629471 126.28704548 C167.97003613 128.00338382 165.56887574 127.86090226 162.07617188 127.84178162 C161.4025914 127.8422197 160.72901093 127.84265778 160.03501892 127.84310913 C157.81634177 127.8410249 155.59842738 127.81771244 153.37988281 127.79417419 C151.8386069 127.78857691 150.29732564 127.78430743 148.75604248 127.78131104 C144.70515125 127.76987262 140.6545842 127.74041434 136.6038208 127.7071991 C132.4680215 127.67647642 128.33216966 127.66280102 124.19628906 127.64768982 C116.08546344 127.61554345 107.97490099 127.56435951 99.86425781 127.50120544 C100.19425781 128.49120544 100.52425781 129.48120544 100.86425781 130.50120544 C101.16720163 133.33288862 101.37180839 136.16523379 101.58300781 139.00511169 C101.71876051 141.49708971 101.71876051 141.49708971 102.86425781 143.50120544 C104.75959123 143.96643607 104.75959123 143.96643607 106.92675781 144.12620544 C108.87582031 144.31183044 108.87582031 144.31183044 110.86425781 144.50120544 C111.35925781 146.97620544 111.35925781 146.97620544 111.86425781 149.50120544 C112.68410156 149.46640076 113.50394531 149.43159607 114.34863281 149.39573669 C115.42628906 149.36866638 116.50394531 149.34159607 117.61425781 149.31370544 C118.68160156 149.27890076 119.74894531 149.24409607 120.84863281 149.20823669 C124.19594854 149.53342928 125.47128222 150.19789638 127.86425781 152.50120544 C128.80175781 154.37620544 128.80175781 154.37620544 128.86425781 156.50120544 C127.92675781 159.12620544 127.92675781 159.12620544 125.86425781 161.50120544 C123.9128418 162.17063904 123.9128418 162.17063904 121.73535156 162.64964294 C120.45789063 162.93065857 119.18042969 163.21167419 117.86425781 163.50120544 C119.105625 163.51538513 120.34699219 163.52956482 121.62597656 163.54417419 C123.26794024 163.59108744 124.90986619 163.63933476 126.55175781 163.68870544 C127.77668945 163.69740662 127.77668945 163.69740662 129.02636719 163.70628357 C133.46270398 163.86793147 135.34808782 164.09494237 138.94628906 166.92698669 C140.86425781 169.50120544 140.86425781 169.50120544 140.86425781 171.50120544 C141.52425781 171.50120544 142.18425781 171.50120544 142.86425781 171.50120544 C144.79500862 173.77872733 146.6239917 176.06348608 148.42675781 178.43870544 C149.42768093 179.73977832 150.42896463 181.0405739 151.43066406 182.34104919 C152.23375 183.38390076 153.03683594 184.42675232 153.86425781 185.50120544 C154.19425781 185.83120544 154.52425781 186.16120544 154.86425781 186.50120544 C154.90489613 188.1673766 154.90697881 189.83508639 154.86425781 191.50120544 C92.29329801 195.10063546 92.29329801 195.10063546 66.17858887 194.54801941 C63.54687617 194.49478549 60.91508638 194.44998292 58.28320312 194.4059906 C52.10168404 194.30184081 45.92043811 194.18627704 39.73925781 194.06370544 C38.75630737 194.04432922 37.77335693 194.024953 36.76062012 194.00498962 C25.43530777 193.77323925 14.15853681 193.39574746 2.86425781 192.50120544 C1.60662287 187.04157896 1.60662287 187.04157896 2.74121094 184.66184998 C3.43633789 183.90557312 3.43633789 183.90557312 4.14550781 183.13401794 C4.65855469 182.55780701 5.17160156 181.98159607 5.70019531 181.38792419 C6.24933594 180.80655701 6.79847656 180.22518982 7.36425781 179.62620544 C8.1415625 178.76575623 8.1415625 178.76575623 8.93457031 177.88792419 C9.97775893 176.73425008 11.03608662 175.5940565 12.11021423 174.46913147 C13.89632612 172.55340931 13.89632612 172.55340931 15.26734924 170.42390442 C17.68637249 167.03022749 19.51885913 164.83962168 23.65072632 163.80030823 C27.06015018 163.5758462 30.38306356 163.60135076 33.79785156 163.71995544 C35.03092545 163.73127502 36.26399933 163.7425946 37.53443909 163.7542572 C41.45848371 163.79890816 45.37882465 163.89926736 49.30175781 164.00120544 C51.96772 164.04586875 54.63364738 164.07784477 57.29980469 164.11058044 C63.82254477 164.19860767 70.3431367 164.33233913 76.86425781 164.50120544 C77.13238281 163.86183044 77.40050781 163.22245544 77.67675781 162.56370544 C78.86425781 160.50120544 78.86425781 160.50120544 81.86425781 159.50120544 C84.26040113 159.36053309 86.65994323 159.27546546 89.05957031 159.21995544 C89.76644989 159.20154602 90.47332947 159.1831366 91.20162964 159.16416931 C93.46408874 159.10550362 95.72662575 159.05273836 97.98925781 159.00120544 C110.95851526 158.73619383 110.95851526 158.73619383 123.86425781 157.50120544 C123.86425781 156.51120544 123.86425781 155.52120544 123.86425781 154.50120544 C122.96667755 154.49311859 122.06909729 154.48503174 121.14431763 154.47669983 C112.69774836 154.39885527 104.2513407 154.31159566 95.80497932 154.21367836 C91.46230406 154.16366876 87.11965367 154.11733935 82.77685547 154.07933044 C78.58814881 154.04253625 74.39964801 153.99619275 70.21111679 153.94314194 C68.61072261 153.92456667 67.01028425 153.90947035 65.40982437 153.89786148 C63.17322828 153.8810522 60.9371069 153.85203132 58.70068359 153.8200531 C57.42605255 153.80672943 56.15142151 153.79340576 54.83816528 153.77967834 C51.86425781 153.50120544 51.86425781 153.50120544 49.86425781 151.50120544 C49.67675781 148.43870544 49.67675781 148.43870544 49.86425781 145.50120544 C50.86425781 144.50120544 50.86425781 144.50120544 52.93066406 144.40354919 C55.24186198 144.43610128 57.5530599 144.46865336 59.86425781 144.50120544 C60.19425781 138.89120544 60.52425781 133.28120544 60.86425781 127.50120544 C57.8057959 127.53262634 57.8057959 127.53262634 54.68554688 127.56468201 C47.94818576 127.63096603 41.21081022 127.67514631 34.47320938 127.70845413 C30.38821412 127.72932756 26.30355297 127.75764007 22.21875 127.80296326 C18.27651436 127.84643075 14.33460004 127.87034439 10.39214325 127.88071442 C8.88821097 127.88810426 7.38429624 127.90253511 5.88050079 127.92412567 C3.77346322 127.95317356 1.66775253 127.95716115 -0.43945312 127.95530701 C-1.63858337 127.96418945 -2.83771362 127.9730719 -4.07318115 127.98222351 C-7.83482052 127.39140541 -8.7757912 126.42582316 -11.13574219 123.50120544 C-11.63910675 121.16172028 -11.63910675 121.16172028 -11.64367676 118.52940369 C-11.65495605 117.52840134 -11.66623535 116.52739899 -11.67785645 115.49606323 C-11.66975952 114.40399063 -11.6616626 113.31191803 -11.65332031 112.18675232 C-11.66032959 111.03191849 -11.66733887 109.87708466 -11.67456055 108.68725586 C-11.69218585 104.8645788 -11.68050085 101.04264022 -11.66699219 97.21995544 C-11.66968578 94.56723608 -11.67356076 91.91453928 -11.67858887 89.26182556 C-11.68586403 83.70009845 -11.67628123 78.13858387 -11.65722656 72.57688904 C-11.63545777 66.14880259 -11.64250926 59.72122362 -11.66453218 53.29314947 C-11.68269013 47.77198874 -11.68524267 42.25098069 -11.67477751 36.72979975 C-11.6685446 33.43316064 -11.66927377 30.1368121 -11.68092346 26.84017944 C-11.69106009 23.16498805 -11.67562649 19.49077679 -11.65332031 15.81565857 C-11.66141724 14.72358597 -11.66951416 13.63151337 -11.67785645 12.50634766 C-11.66657715 11.50534531 -11.65529785 10.50434296 -11.64367676 9.4730072 C-11.64216866 8.60434273 -11.64066055 7.73567825 -11.63910675 6.84069061 C-10.26089326 0.43517411 -5.80770224 0.00094295 0 0 Z " fill="#F75656" transform="translate(260.1357421875,102.49879455566406)"/>
<path d="M0 0 C60.72 0 121.44 0 184 0 C184 4.95 184 9.9 184 15 C179.55518765 18.33360927 178.53407345 18.36971208 173.21191406 18.34057617 C172.53833359 18.34101425 171.86475311 18.34145233 171.17076111 18.34190369 C168.95208396 18.33981946 166.73416957 18.31650699 164.515625 18.29296875 C162.97434909 18.28737146 161.43306783 18.28310199 159.89178467 18.28010559 C155.84089344 18.26866718 151.79032639 18.23920889 147.73956299 18.20599365 C143.60376368 18.17527098 139.46791185 18.16159557 135.33203125 18.14648438 C127.22120562 18.114338 119.11064317 18.06315407 111 18 C111.495 19.485 111.495 19.485 112 21 C112.30294382 23.83168318 112.50755058 26.66402835 112.71875 29.50390625 C112.8545027 31.99588427 112.8545027 31.99588427 114 34 C115.89533342 34.46523063 115.89533342 34.46523063 118.0625 34.625 C120.0115625 34.810625 120.0115625 34.810625 122 35 C122.495 37.475 122.495 37.475 123 40 C123.81984375 39.96519531 124.6396875 39.93039063 125.484375 39.89453125 C126.56203125 39.86746094 127.6396875 39.84039062 128.75 39.8125 C130.35101563 39.76029297 130.35101563 39.76029297 131.984375 39.70703125 C135.33169073 40.03222384 136.60702441 40.69669094 139 43 C139.9375 44.875 139.9375 44.875 140 47 C139.0625 49.625 139.0625 49.625 137 52 C135.04858398 52.66943359 135.04858398 52.66943359 132.87109375 53.1484375 C131.59363281 53.42945313 130.31617188 53.71046875 129 54 C130.24136719 54.01417969 131.48273438 54.02835937 132.76171875 54.04296875 C134.40368243 54.089882 136.04560837 54.13812932 137.6875 54.1875 C138.91243164 54.19620117 138.91243164 54.19620117 140.16210938 54.20507812 C144.59844617 54.36672602 146.48383001 54.59373693 150.08203125 57.42578125 C152 60 152 60 152 62 C152.66 62 153.32 62 154 62 C155.93075081 64.27752188 157.75973389 66.56228063 159.5625 68.9375 C160.56342312 70.23857288 161.56470682 71.53936846 162.56640625 72.83984375 C163.36949219 73.88269531 164.17257812 74.92554688 165 76 C165.33 76.33 165.66 76.66 166 77 C166.04063832 78.66617115 166.042721 80.33388095 166 82 C103.42904019 85.59943002 103.42904019 85.59943002 77.31433105 85.04681396 C74.68261836 84.99358005 72.05082856 84.94877747 69.41894531 84.90478516 C63.23742623 84.80063536 57.0561803 84.68507159 50.875 84.5625 C49.89204956 84.54312378 48.90909912 84.52374756 47.8963623 84.50378418 C36.57104996 84.27203381 25.29427899 83.89454202 14 83 C12.74236505 77.54037352 12.74236505 77.54037352 13.87695312 75.16064453 C14.57208008 74.40436768 14.57208008 74.40436768 15.28125 73.6328125 C15.79429687 73.05660156 16.30734375 72.48039062 16.8359375 71.88671875 C17.38507813 71.30535156 17.93421875 70.72398437 18.5 70.125 C19.01820313 69.55136719 19.53640625 68.97773438 20.0703125 68.38671875 C21.11350112 67.23304464 22.17182881 66.09285105 23.24595642 64.96792603 C25.0320683 63.05220386 25.0320683 63.05220386 26.40309143 60.92269897 C28.82211468 57.52902205 30.65460132 55.33841624 34.78646851 54.29910278 C38.19589237 54.07464076 41.51880575 54.10014531 44.93359375 54.21875 C46.16666763 54.23006958 47.39974152 54.24138916 48.67018127 54.25305176 C52.5942259 54.29770271 56.51456683 54.39806192 60.4375 54.5 C63.10346218 54.5446633 65.76938956 54.57663932 68.43554688 54.609375 C74.95828696 54.69740223 81.47887888 54.83113369 88 55 C88.268125 54.360625 88.53625 53.72125 88.8125 53.0625 C90 51 90 51 93 50 C95.39614332 49.85932764 97.79568542 49.77426001 100.1953125 49.71875 C100.90219208 49.70034058 101.60907166 49.68193115 102.33737183 49.66296387 C104.59983093 49.60429818 106.86236794 49.55153291 109.125 49.5 C122.09425745 49.23498839 122.09425745 49.23498839 135 48 C135 47.01 135 46.02 135 45 C134.10241974 44.99191315 133.20483948 44.98382629 132.28005981 44.97549438 C123.83349055 44.89764982 115.38708289 44.81039021 106.94072151 44.71247292 C102.59804624 44.66246332 98.25539586 44.61613391 93.91259766 44.578125 C89.723891 44.54133081 85.5353902 44.4949873 81.34685898 44.44193649 C79.7464648 44.42336122 78.14602643 44.40826491 76.54556656 44.39665604 C74.30897046 44.37984676 72.07284909 44.35082587 69.83642578 44.31884766 C68.56179474 44.30552399 67.2871637 44.29220032 65.97390747 44.2784729 C63 44 63 44 61 42 C60.8125 38.9375 60.8125 38.9375 61 36 C62 35 62 35 64.06640625 34.90234375 C67.53320312 34.95117188 67.53320312 34.95117188 71 35 C71.33 29.39 71.66 23.78 72 18 C68.94153809 18.0314209 68.94153809 18.0314209 65.82128906 18.06347656 C59.08392794 18.12976058 52.3465524 18.17394087 45.60895157 18.20724869 C41.5239563 18.22812211 37.43929515 18.25643463 33.35449219 18.30175781 C29.41225655 18.3452253 25.47034223 18.36913895 21.52788544 18.37950897 C20.02395316 18.38689882 18.52003843 18.40132967 17.01624298 18.42292023 C14.90920541 18.45196812 12.80349471 18.45595571 10.69628906 18.45410156 C9.49715881 18.46298401 8.29802856 18.47186646 7.06256104 18.48101807 C4 18 4 18 0 14 C0 9.38 0 4.76 0 0 Z " fill="#DEDEDE" transform="translate(249,212)"/>
<path d="M0 0 C7.98745341 5.2530099 14.12582469 12.02745977 16.2890625 21.5234375 C18.09248404 33.50116221 16.65765617 42.19553295 10.2890625 52.5234375 C4.75991389 59.60344487 -2.22254527 63.03420346 -10.7109375 65.5234375 C-12.99546557 65.79924613 -15.28912133 66.0078161 -17.5859375 66.1484375 C-19.31457031 66.26058594 -19.31457031 66.26058594 -21.078125 66.375 C-21.94695312 66.42398438 -22.81578125 66.47296875 -23.7109375 66.5234375 C-23.13085938 66.97332031 -22.55078125 67.42320312 -21.953125 67.88671875 C-15.10877457 73.52257826 -9.28209267 80.51886001 -7.7109375 89.5234375 C-6.79768213 101.27598607 -8.3557936 111.42686659 -15.953125 120.7421875 C-23.41045791 128.29895152 -32.12496217 131.60729493 -42.5859375 131.9609375 C-53.47570424 131.65649241 -60.7252243 128.46396933 -68.546875 120.890625 C-75.91587113 112.82995414 -78.23173358 104.75191884 -78.01953125 93.8671875 C-77.17120361 84.6751817 -73.17093335 77.04689107 -66.7109375 70.5234375 C-59.34818937 64.45079922 -52.29974815 62.4042593 -42.7734375 61.8984375 C-42.08958984 61.85976562 -41.40574219 61.82109375 -40.70117188 61.78125 C-39.03814237 61.68821338 -37.37457903 61.60479963 -35.7109375 61.5234375 C-36.62617188 60.93949219 -37.54140625 60.35554688 -38.484375 59.75390625 C-46.57052851 54.16408343 -51.77174968 46.18313011 -53.7109375 36.5234375 C-54.70745759 25.52904377 -52.48863147 15.91823862 -45.38671875 7.30078125 C-33.55772133 -5.2451251 -15.18254968 -8.26945789 0 0 Z " fill="#2E5997" transform="translate(522.7109375,161.4765625)"/>
<path d="M0 0 C0.71930065 -0.0055344 1.4386013 -0.01106879 2.17969894 -0.0167709 C4.59052812 -0.03038685 7.00032368 -0.01540402 9.41113281 -0.00050354 C11.13920532 -0.00428639 12.86727481 -0.00978616 14.59533691 -0.01687622 C19.28956243 -0.03085256 23.98342231 -0.01964582 28.67762756 -0.00316501 C33.5871714 0.01067222 38.49669371 0.00422693 43.40625 0.0007019 C51.65142722 -0.00200127 59.89645896 0.0114846 68.14160156 0.03465271 C77.67788744 0.06126311 87.21393004 0.06300994 96.75024033 0.05126435 C105.91901516 0.0404899 115.08770189 0.04667102 124.25646973 0.06081963 C128.16070638 0.06658232 132.0648786 0.06649452 135.96911621 0.06175423 C140.56563219 0.05698637 145.16188135 0.06707816 149.75834656 0.08870888 C151.44662069 0.09427953 153.13492045 0.09473949 154.82319641 0.08975601 C157.12526685 0.08381229 159.42651898 0.09628991 161.72851562 0.11352539 C163.0175177 0.11595529 164.30651978 0.11838518 165.63458252 0.12088871 C169.08577393 0.52729051 170.54124212 0.93512334 172.86425781 3.50120544 C173.35644913 5.52579021 173.35644913 5.52579021 173.34527588 7.88613892 C173.35078587 8.7803036 173.35629585 9.67446829 173.36197281 10.59572887 C173.34038416 12.06910701 173.34038416 12.06910701 173.31835938 13.57225037 C173.31884151 14.62330365 173.31932365 15.67435694 173.3198204 16.75726032 C173.3168304 20.16574056 173.28635 23.57335012 173.25488281 26.98167419 C173.24900305 29.08343586 173.24492149 31.18520336 173.24267578 33.28697205 C173.22168833 41.08763906 173.1658436 48.88818077 173.11425781 56.68870544 C173.03175781 74.11683044 172.94925781 91.54495544 172.86425781 109.50120544 C112.14425781 109.50120544 51.42425781 109.50120544 -11.13574219 109.50120544 C-11.21824219 92.25870544 -11.30074219 75.01620544 -11.38574219 57.25120544 C-11.4221582 51.80588318 -11.45857422 46.36056091 -11.49609375 40.75022888 C-11.51416016 34.10325623 -11.51416016 34.10325623 -11.51751709 30.99198914 C-11.52366139 28.81796496 -11.53773384 26.64395446 -11.55804443 24.47001648 C-11.58726684 21.17776286 -11.59136823 17.8863425 -11.58984375 14.59397888 C-11.60423618 13.62469326 -11.61862862 12.65540764 -11.63345718 11.65674973 C-11.6279472 10.76960407 -11.62243721 9.88245842 -11.61676025 8.96842957 C-11.62044743 8.19781063 -11.6241346 7.4271917 -11.6279335 6.63322067 C-10.18489617 0.38244486 -5.6469691 0.00091685 0 0 Z M-2.13574219 8.50120544 C-2.13574219 39.52120544 -2.13574219 70.54120544 -2.13574219 102.50120544 C52.64425781 102.50120544 107.42425781 102.50120544 163.86425781 102.50120544 C163.86425781 71.48120544 163.86425781 40.46120544 163.86425781 8.50120544 C109.08425781 8.50120544 54.30425781 8.50120544 -2.13574219 8.50120544 Z " fill="#261410" transform="translate(260.1357421875,102.49879455566406)"/>
<path d="M0 0 C6.72403712 5.97285042 11.37324176 14.3427157 12.19140625 23.26171875 C12.54106773 34.41704775 10.94662784 42.60134231 3.625 51.1875 C-4.11278485 59.1524955 -12.86099288 63.78143078 -24.125 64.1875 C-35.37329164 63.78199732 -44.81643696 58.8954824 -52.51953125 50.83984375 C-59.48272477 42.04690595 -60.84905118 32.72791304 -60.125 21.8125 C-58.75036074 13.24938018 -54.59076162 5.56026814 -47.9140625 -0.04296875 C-32.43632566 -10.74003943 -15.4251974 -10.79763818 0 0 Z " fill="#2483D6" transform="translate(224.125,98.1875)"/>
<path d="M0 0 C8.113608 6.45400636 13.43599373 12.97334792 15.34765625 23.46875 C16.59583527 35.74968383 13.61520867 43.71592955 7 53.875 C-0.59492855 61.68089879 -9.36264219 65.26116893 -20.125 65.625 C-30.90557051 65.34649226 -39.55366668 61.79381772 -47.25 54.1875 C-54.2447549 45.81522226 -56.89726924 37.31175047 -56.59375 26.4609375 C-55.53782054 16.40560922 -50.8659166 7.87940838 -43.11328125 1.40234375 C-29.42786985 -8.31835859 -14.49445641 -8.08344685 0 0 Z " fill="#01AEEF" transform="translate(502.25,93.8125)"/>
<path d="M0 0 C8.34413637 6.26425577 15.13093238 13.46525525 17 24 C17.82535597 34.28520516 17.22475855 43.20651971 11.01171875 51.7265625 C4.18452089 59.72110507 -3.21574049 65.42347202 -13.953125 66.3359375 C-25.86097704 66.58791911 -34.52951325 64.83030412 -43.95703125 57.0546875 C-51.13494401 49.83560124 -54.25400508 40.88313302 -54.4375 30.8125 C-54.3169907 22.11861448 -51.95640897 14.64548875 -46.75 7.625 C-34.65880207 -3.91659803 -15.09845631 -9.67650207 0 0 Z " fill="#8E262A" transform="translate(194,164)"/>
<path d="M0 0 C0.495 0.99 0.495 0.99 1 2 C1.66 1.67 2.32 1.34 3 1 C4.76012263 0.88388268 6.52453473 0.83038622 8.28833008 0.80712891 C9.39320267 0.79106598 10.49807526 0.77500305 11.63642883 0.75845337 C16.69161424 0.71407965 21.74666745 0.67294199 26.80200195 0.64990234 C29.47091561 0.63656713 32.13802187 0.60604198 34.80688477 0.56787109 C38.64883513 0.51318649 42.48974444 0.49124013 46.33203125 0.4765625 C47.52488235 0.45389313 48.71773346 0.43122375 49.94673157 0.40786743 C59.16222238 0.43143721 59.16222238 0.43143721 62.29174805 3.40771484 C64 6 64 6 64 8 C64.66 8 65.32 8 66 8 C67.93075081 10.27752188 69.75973389 12.56228063 71.5625 14.9375 C72.56342312 16.23857288 73.56470682 17.53936846 74.56640625 18.83984375 C75.36949219 19.88269531 76.17257812 20.92554688 77 22 C77.33 22.33 77.66 22.66 78 23 C78.04063832 24.66617115 78.042721 26.33388095 78 28 C15.42904019 31.59943002 15.42904019 31.59943002 -10.68566895 31.04681396 C-13.31738164 30.99358005 -15.94917144 30.94877747 -18.58105469 30.90478516 C-24.76257377 30.80063536 -30.9438197 30.68507159 -37.125 30.5625 C-38.10795044 30.54312378 -39.09090088 30.52374756 -40.1036377 30.50378418 C-51.42895004 30.27203381 -62.70572101 29.89454202 -74 29 C-75.25763495 23.54037352 -75.25763495 23.54037352 -74.12304688 21.16064453 C-73.65962891 20.65645996 -73.19621094 20.15227539 -72.71875 19.6328125 C-72.20570313 19.05660156 -71.69265625 18.48039062 -71.1640625 17.88671875 C-70.61492187 17.30535156 -70.06578125 16.72398437 -69.5 16.125 C-68.98179687 15.55136719 -68.46359375 14.97773438 -67.9296875 14.38671875 C-66.88635891 13.23288984 -65.82802695 12.09242278 -64.75404358 10.96707153 C-62.96913769 9.05254424 -62.96913769 9.05254424 -61.59690857 6.9303894 C-59.1753712 3.54285742 -57.3237933 1.3514235 -53.21353149 0.26028442 C-49.80839116 -0.02118641 -46.4827402 -0.05579838 -43.06640625 0 C-41.83333237 -0.01087646 -40.60025848 -0.02175293 -39.32981873 -0.03295898 C-35.40648521 -0.05907319 -31.4857634 -0.03029547 -27.5625 0 C-24.89639193 -0.00364123 -22.23054061 -0.01977088 -19.56445312 -0.03515625 C-13.0424932 -0.06497838 -6.52181206 -0.04978446 0 0 Z " fill="#E0E0E0" transform="translate(337,266)"/>
<path d="M0 0 C7.62056712 5.14085877 12.73479737 12.17659822 15.63671875 20.91796875 C17.61930618 32.28053971 15.78184283 42.77968006 9.3125 52.3125 C3.95683995 58.87923895 -3.66012525 63.46870281 -12 65 C-22.22674888 65.98264135 -31.26907028 65.17914502 -39.7265625 59.01171875 C-47.79209292 52.12389852 -53.31974685 44.88047111 -54.25390625 34.05859375 C-54.6543569 23.11724854 -52.05300996 14.44918 -44.98828125 6.0078125 C-33.45393548 -5.63983725 -14.33186291 -8.03039303 0 0 Z " fill="#1E7044" transform="translate(499,228)"/>
<path d="M0 0 C8.26786257 6.78925824 13.29930894 15.53205876 14.546875 26.1875 C14.90232911 35.89700974 11.5650566 44.81913251 5.28125 52.18359375 C-2.02138313 59.47176622 -10.88512532 63.085646 -21.19140625 63.52734375 C-32.70170732 63.03316267 -40.59340308 58.57888092 -48.44140625 50.46484375 C-54.80595002 42.76039602 -56.39648518 34.34475096 -56.07421875 24.515625 C-55.04397313 15.46418132 -50.63940678 7.26945362 -43.62109375 1.4296875 C-30.49074321 -7.88050879 -13.62006984 -9.3502076 0 0 Z " fill="#DF5638" transform="translate(228.69140625,229.84765625)"/>
<path d="M0 0 C28.61264822 0 28.61264822 0 35.16796875 5.9765625 C41.17416732 12.57019367 41.59277616 17.9601422 41.40234375 26.63671875 C41.04962127 32.4748407 39.11298248 36.80908732 35 41 C29.88653915 44.58231156 24.67167154 46.13053794 18.45703125 46.09765625 C17.00647339 46.09390991 17.00647339 46.09390991 15.52661133 46.09008789 C14.30095459 46.08098389 13.07529785 46.07187988 11.8125 46.0625 C5.9653125 46.0315625 5.9653125 46.0315625 0 46 C0 30.82 0 15.64 0 0 Z " fill="#FEF7F7" transform="translate(337,136)"/>
<path d="M0 0 C0 1.65 0 3.3 0 5 C5.94 5 11.88 5 18 5 C18 16.22 18 27.44 18 39 C12.06 39 6.12 39 0 39 C0 40.32 0 41.64 0 43 C-9.30066874 42.49772925 -17.7447641 40.85104718 -27 39 C-27 27.45 -27 15.9 -27 4 C-21.72 3.01 -16.44 2.02 -11 1 C-7.0526448 0.21052896 -3.95712151 -0.09202608 0 0 Z " fill="#EDEEF1" transform="translate(508,170)"/>
<path d="M0 0 C0 1.32 0 2.64 0 4 C5.61 4 11.22 4 17 4 C17 15.55 17 27.1 17 39 C11.39 39 5.78 39 0 39 C0 40.32 0 41.64 0 43 C-8.93818931 42.46110709 -17.10205763 40.77958847 -26 39 C-26 27.45 -26 15.9 -26 4 C-22.82375 3.34 -19.6475 2.68 -16.375 2 C-15.3854834 1.79117188 -14.3959668 1.58234375 -13.37646484 1.3671875 C-8.8477337 0.4444139 -4.65038295 -0.24719644 0 0 Z " fill="#FAECE9" transform="translate(212,237)"/>
<path d="M0 0 C11.88 0 23.76 0 36 0 C37.88415395 3.76830789 38.30558652 5.56904671 38.5625 9.625 C38.74338455 13.45721155 38.74338455 13.45721155 40 17 C41.89533342 17.46523063 41.89533342 17.46523063 44.0625 17.625 C45.361875 17.74875 46.66125 17.8725 48 18 C48.495 20.475 48.495 20.475 49 23 C49.81984375 22.96519531 50.6396875 22.93039063 51.484375 22.89453125 C52.56203125 22.86746094 53.6396875 22.84039062 54.75 22.8125 C56.35101563 22.76029297 56.35101563 22.76029297 57.984375 22.70703125 C61.33169073 23.03222384 62.60702441 23.69669094 65 26 C65.9375 27.875 65.9375 27.875 66 30 C65.0625 32.625 65.0625 32.625 63 35 C57.50564403 36.71065067 52.46500803 37.31090582 46.73828125 37.37890625 C45.98459763 37.39590073 45.230914 37.4128952 44.45439148 37.43040466 C42.07384355 37.48299104 39.69330742 37.52358923 37.3125 37.5625 C34.92106497 37.60662954 32.52975356 37.6534397 30.13847351 37.70530701 C28.65827378 37.73692481 27.17796554 37.76391576 25.69758606 37.78553772 C22.01891109 37.85910737 18.5804288 38.13611873 15 39 C14.67 38.01 14.34 37.02 14 36 C18.18684193 32.97973621 21.2763391 32.60146493 26.390625 32.5234375 C27.09467468 32.50785797 27.79872437 32.49227844 28.52410889 32.47622681 C30.76606078 32.42893675 33.00770996 32.40106753 35.25 32.375 C38.19283709 32.32638978 41.13547937 32.2699302 44.078125 32.2109375 C44.77788452 32.1981073 45.47764404 32.1852771 46.1986084 32.17205811 C51.19162214 32.06434345 56.05537404 31.68240313 61 31 C61 30.01 61 29.02 61 28 C60.10241974 27.99191315 59.20483948 27.98382629 58.28005981 27.97549438 C49.83349055 27.89764982 41.38708289 27.81039021 32.94072151 27.71247292 C28.59804624 27.66246332 24.25539586 27.61613391 19.91259766 27.578125 C15.723891 27.54133081 11.5353902 27.4949873 7.34685898 27.44193649 C5.7464648 27.42336122 4.14602643 27.40826491 2.54556656 27.39665604 C0.30897046 27.37984676 -1.92715091 27.35082587 -4.16357422 27.31884766 C-5.43820526 27.30552399 -6.7128363 27.29220032 -8.02609253 27.2784729 C-11 27 -11 27 -13 25 C-13.1875 21.9375 -13.1875 21.9375 -13 19 C-12 18 -12 18 -9.93359375 17.90234375 C-6.46679688 17.95117188 -6.46679688 17.95117188 -3 18 C-2.67 12.72 -2.34 7.44 -2 2 C-1.34 2 -0.68 2 0 2 C0 1.34 0 0.68 0 0 Z " fill="#DDDDDD" transform="translate(323,229)"/>
<path d="M0 0 C0 11.55 0 23.1 0 35 C4.95 35 9.9 35 15 35 C14.979375 33.246875 14.95875 31.49375 14.9375 29.6875 C14.93042914 23.74090532 15.34878261 17.90747207 16 12 C15.01 11.67 14.02 11.34 13 11 C13.99 11 14.98 11 16 11 C16 9.35 16 7.7 16 6 C12.7 6 9.4 6 6 6 C6 5.34 6 4.68 6 4 C10.29 4 14.58 4 19 4 C19 14.89 19 25.78 19 37 C12.73 37 6.46 37 0 37 C0 38.32 0 39.64 0 41 C-2.45904817 40.88406473 -4.91682468 40.75739723 -7.375 40.625 C-8.05433594 40.5940625 -8.73367188 40.563125 -9.43359375 40.53125 C-15.22584799 40.2064507 -20.15978598 39.1680428 -26 38 C-26 26.78 -26 15.56 -26 4 C-22.1440937 2.45763748 -19.25124521 1.5418742 -15.25 0.875 C-14.28578125 0.70742187 -13.3215625 0.53984375 -12.328125 0.3671875 C-8.2417231 -0.08365966 -4.11119735 0 0 0 Z " fill="#EDF0EE" transform="translate(483,237)"/>
<path d="M0 0 C0 14.52 0 29.04 0 44 C-12 44 -12 44 -27 41 C-27 28.79 -27 16.58 -27 4 C-23.844375 3.34 -20.68875 2.68 -17.4375 2 C-15.9668811 1.68675781 -15.9668811 1.68675781 -14.46655273 1.3671875 C-13.27461304 1.12355469 -13.27461304 1.12355469 -12.05859375 0.875 C-11.25736084 0.70742187 -10.45612793 0.53984375 -9.63061523 0.3671875 C-6.44892302 -0.07692063 -3.21253753 0 0 0 Z " fill="#E8F4FB" transform="translate(204,104)"/>
<path d="M0 0 C2.43757413 -0.02698422 4.87484915 -0.04683099 7.3125 -0.0625 C8.00279297 -0.07087891 8.69308594 -0.07925781 9.40429688 -0.08789062 C12.5483025 -0.10307906 14.99420019 -0.00193327 18 1 C19.99673484 1.35236497 21.99650739 1.68834559 24 2 C23.1875 3.9375 23.1875 3.9375 22 6 C21.01 6.33 20.02 6.66 19 7 C18.67 7.66 18.34 8.32 18 9 C20.31 9 22.62 9 25 9 C24.505 6.525 24.505 6.525 24 4 C24.66 4 25.32 4 26 4 C26 3.34 26 2.68 26 2 C26.94875 2.020625 27.8975 2.04125 28.875 2.0625 C31.90666283 2.22551826 31.90666283 2.22551826 34 1 C36 1.33333333 38 1.66666667 40 2 C40.66 1.67 41.32 1.34 42 1 C43.76503548 1.24225977 45.52975188 1.4870281 47.29296875 1.7421875 C53.16307769 2.30124549 59.10773482 2.06904998 65 2 C64.34 2.33 63.68 2.66 63 3 C63 3.99 63 4.98 63 6 C61.68 6 60.36 6 59 6 C59 7.32 59 8.64 59 10 C59.66 10 60.32 10 61 10 C61 10.99 61 11.98 61 13 C59.68 13 58.36 13 57 13 C57 14.32 57 15.64 57 17 C48.09 17 39.18 17 30 17 C30.495 15.515 30.495 15.515 31 14 C32.65 14 34.3 14 36 14 C36 12.68 36 11.36 36 10 C38.31 10 40.62 10 43 10 C42.505 8.02 42.505 8.02 42 6 C42 6.99 42 7.98 42 9 C39.66705225 9.04241723 37.33297433 9.04092937 35 9 C34.505 8.505 34.505 8.505 34 8 C33.67 8.66 33.34 9.32 33 10 C33.66 10 34.32 10 35 10 C34.67 10.99 34.34 11.98 34 13 C31.66705225 13.04241723 29.33297433 13.04092937 27 13 C26.505 12.505 26.505 12.505 26 12 C25.67 12.66 25.34 13.32 25 14 C26.32 14 27.64 14 29 14 C28.125 19.75 28.125 19.75 27 22 C23.37 22 19.74 22 16 22 C16.33 20.68 16.66 19.36 17 18 C17.99 18 18.98 18 20 18 C19.67 17.67 19.34 17.34 19 17 C17.68 17 16.36 17 15 17 C13.68 17 12.36 17 11 17 C10.67 16.67 10.34 16.34 10 16 C9.67 16.33 9.34 16.66 9 17 C7.58429877 17.08651611 6.164405 17.10704904 4.74609375 17.09765625 C3.89208984 17.09443359 3.03808594 17.09121094 2.15820312 17.08789062 C1.26037109 17.07951172 0.36253906 17.07113281 -0.5625 17.0625 C-1.46419922 17.05798828 -2.36589844 17.05347656 -3.29492188 17.04882812 C-5.53001314 17.03700225 -7.76497437 17.0205222 -10 17 C-8.24044478 13.28615618 -6.01109938 10.41331925 -3.375 7.25 C-2.55773437 6.26515625 -1.74046875 5.2803125 -0.8984375 4.265625 C-0.27195312 3.51796875 0.35453125 2.7703125 1 2 C0.67 1.34 0.34 0.68 0 0 Z " fill="#E6E6E7" transform="translate(281,267)"/>
<path d="M0 0 C0.44730469 0.40992188 0.89460938 0.81984375 1.35546875 1.2421875 C1.96003906 1.78101563 2.56460938 2.31984375 3.1875 2.875 C3.77917969 3.40867188 4.37085938 3.94234375 4.98046875 4.4921875 C7.21598073 6.16125447 9.38105679 7.0682171 12 8 C12.62375809 19.86873036 11.46166839 29.77281615 3.7578125 39.21875 C-3.92576641 47.00477663 -12.68381582 50.1259565 -23.4375 50.3125 C-29.70779221 50.29220779 -29.70779221 50.29220779 -32 48 C-32 47.34 -32 46.68 -32 46 C-33.96175983 43.91854947 -35.94183637 41.91917782 -38 39.9375 C-40.02182418 37.9771502 -42.01866916 36.0019697 -44 34 C-44 33.67 -44 33.34 -44 33 C-41.12473931 33.1416533 -38.24986464 33.28818532 -35.375 33.4375 C-34.56675781 33.47681641 -33.75851562 33.51613281 -32.92578125 33.55664062 C-28.54849135 33.78796082 -24.31452719 34.16920917 -20 35 C-20 33.68 -20 32.36 -20 31 C-13.73 31 -7.46 31 -1 31 C-1.020625 28.1125 -1.04125 25.225 -1.0625 22.25 C-1.08877207 14.78552684 -0.83001606 7.42567937 0 0 Z " fill="#174F32" transform="translate(503,243)"/>
<path d="M0 0 C0.33 8.25 0.66 16.5 1 25 C4.63 25.33 8.26 25.66 12 26 C12 26.33 12 26.66 12 27 C8.04 27 4.08 27 0 27 C0 31.95 0 36.9 0 42 C-8.03790382 40.78999297 -15.99589862 39.45529116 -24 38 C-24 26.78 -24 15.56 -24 4 C-18.8953125 3.01 -18.8953125 3.01 -13.6875 2 C-12.61846436 1.79117188 -11.54942871 1.58234375 -10.44799805 1.3671875 C-9.18016479 1.12355469 -9.18016479 1.12355469 -7.88671875 0.875 C-7.02264404 0.70742187 -6.15856934 0.53984375 -5.26831055 0.3671875 C-3 0 -3 0 0 0 Z " fill="#F9F5F5" transform="translate(179,174)"/>
<path d="M0 0 C2.31 1.98 4.62 3.96 7 6 C8.17175781 6.94359375 8.17175781 6.94359375 9.3671875 7.90625 C11.69460105 10.8906846 11.92796617 13.83975088 12.125 17.5 C12.16431641 18.20761475 12.20363281 18.91522949 12.24414062 19.64428711 C12.42937583 28.56879832 8.57925038 35.51069026 2.625 42 C-5.27065032 49.16360327 -15.18537401 51.72419178 -25.66015625 51.5703125 C-29.36386711 50.93786597 -30.48273124 50.31768376 -32.875 47.5 C-33.91921762 46.00177472 -34.96076319 44.50168449 -36 43 C-37.45045297 41.49266652 -38.92977107 40.01254191 -40.4375 38.5625 C-41.64316121 37.39344331 -42.83691398 36.21142206 -44 35 C-44 34.67 -44 34.34 -44 34 C-35.33491247 33.44951209 -27.39647878 35.11918875 -19 37 C-19 35.68 -19 34.36 -19 33 C-13.06 32.67 -7.12 32.34 -1 32 C-0.67 21.44 -0.34 10.88 0 0 Z " fill="#1C3C68" transform="translate(527,176)"/>
<path d="M0 0 C8.34413637 6.26425577 15.13093238 13.46525525 17 24 C17.82535597 34.28520516 17.22475855 43.20651971 11.01171875 51.7265625 C4.18452089 59.72110507 -3.21574049 65.42347202 -13.953125 66.3359375 C-25.86097704 66.58791911 -34.52951325 64.83030412 -43.95703125 57.0546875 C-51.13494401 49.83560124 -54.25400508 40.88313302 -54.4375 30.8125 C-54.3169907 22.11861448 -51.95640897 14.64548875 -46.75 7.625 C-34.65880207 -3.91659803 -15.09845631 -9.67650207 0 0 Z M-37 5 C-37.928125 5.61875 -38.85625 6.2375 -39.8125 6.875 C-46.30317995 13.18023196 -50.07965763 20.25790934 -50.375 29.375 C-50.05120682 39.98658569 -46.46277507 47.85654076 -38.8125 55.1875 C-31.37517848 61.50197915 -24.24394914 62.70638972 -14.5703125 62.4765625 C-6.26406676 61.36785136 1.00027523 57.03445267 6.6015625 50.859375 C12.61251231 42.8671624 14.22574839 33.85313129 13 24 C9.81323657 14.66733568 4.57581702 7.18338901 -4.25 2.625 C-14.92326714 -2.28470288 -27.29912832 -1.63340238 -37 5 Z " fill="#A04C4D" transform="translate(194,164)"/>
<path d="M0 0 C0.99 0 1.98 0 3 0 C3 0.66 3 1.32 3 2 C52.17 1.67 101.34 1.34 152 1 C152 2.65 152 4.3 152 6 C89.42904019 9.59943002 89.42904019 9.59943002 63.31433105 9.04681396 C60.68261836 8.99358005 58.05082856 8.94877747 55.41894531 8.90478516 C49.23742623 8.80063536 43.0561803 8.68507159 36.875 8.5625 C35.40057434 8.53343567 35.40057434 8.53343567 33.8963623 8.50378418 C22.57104996 8.27203381 11.29427899 7.89454202 0 7 C-0.38133299 5.0085944 -0.71325582 3.00720923 -1 1 C-0.67 0.67 -0.34 0.34 0 0 Z " fill="#ACACAB" transform="translate(263,288)"/>
<path d="M0 0 C0.99 0.33 1.98 0.66 3 1 C2.38511719 1.74765625 1.77023437 2.4953125 1.13671875 3.265625 C0.32847656 4.25046875 -0.47976563 5.2353125 -1.3125 6.25 C-2.11300781 7.22453125 -2.91351563 8.1990625 -3.73828125 9.203125 C-5.54442258 11.4366262 -7.29819915 13.68687263 -9 16 C-5.89476646 15.91911825 -2.79149667 15.8062811 0.3125 15.6875 C1.19357422 15.66494141 2.07464844 15.64238281 2.98242188 15.61914062 C3.82998047 15.58369141 4.67753906 15.54824219 5.55078125 15.51171875 C6.33106689 15.48553467 7.11135254 15.45935059 7.9152832 15.43237305 C10.44921166 14.9068329 11.36927777 13.9591474 13 12 C13 12.99 13 13.98 13 15 C15.64 15 18.28 15 21 15 C21 15.66 21 16.32 21 17 C20.01 17 19.02 17 18 17 C17.67 18.32 17.34 19.64 17 21 C20.63 21 24.26 21 28 21 C28.66 18.36 29.32 15.72 30 13 C28.68 13 27.36 13 26 13 C26.66 11.68 27.32 10.36 28 9 C28 9.99 28 10.98 28 12 C30.3431213 11.74438677 32.67843403 11.40729228 35 11 C35.33 10.34 35.66 9.68 36 9 C35.34 9 34.68 9 34 9 C34.66 7.68 35.32 6.36 36 5 C36 5.99 36 6.98 36 8 C38.31 8 40.62 8 43 8 C43 7.01 43 6.02 43 5 C43.66 5.33 44.32 5.66 45 6 C44.67 6.99 44.34 7.98 44 9 C41.69 9 39.38 9 37 9 C37 10.32 37 11.64 37 13 C36.195625 13.12375 35.39125 13.2475 34.5625 13.375 C33.716875 13.58125 32.87125 13.7875 32 14 C31.67 14.66 31.34 15.32 31 16 C32.9490625 15.7215625 32.9490625 15.7215625 34.9375 15.4375 C39.80547826 14.88115963 44.15954005 15.30850572 49 16 C49.33 14.68 49.66 13.36 50 12 C50 13.32 50 14.64 50 16 C52.64 16 55.28 16 58 16 C58.33 14.68 58.66 13.36 59 12 C59 13.32 59 14.64 59 16 C59.6290625 15.91621094 60.258125 15.83242188 60.90625 15.74609375 C66.5314382 15.0768319 71.41233867 15.06872311 77 16 C77.33 15.34 77.66 14.68 78 14 C78 14.66 78 15.32 78 16 C80.64 16 83.28 16 86 16 C86.33 14.68 86.66 13.36 87 12 C87.495 13.485 87.495 13.485 88 15 C90.31 15 92.62 15 95 15 C95.33 14.01 95.66 13.02 96 12 C96.495 13.98 96.495 13.98 97 16 C99.64 16 102.28 16 105 16 C105.33 15.34 105.66 14.68 106 14 C107.32 14.66 108.64 15.32 110 16 C109.67 16.66 109.34 17.32 109 18 C106.36 17.67 103.72 17.34 101 17 C101.495 18.98 101.495 18.98 102 21 C103.918125 20.7525 103.918125 20.7525 105.875 20.5 C113.88961253 19.67769149 121.95428722 19.92112046 130 20 C129.01 19.01 128.02 18.02 127 17 C127.33 16.34 127.66 15.68 128 15 C129.98 16.65 131.96 18.3 134 20 C132 22 132 22 129.47376823 22.24609566 C128.39895761 22.24425207 127.324147 22.24240849 126.21676636 22.24050903 C124.98555054 22.24325836 123.75433472 22.24600769 122.48580933 22.24884033 C121.11407374 22.24176159 119.74233913 22.23449196 118.37060547 22.22705078 C116.93190519 22.22648688 115.49320434 22.22680281 114.05450439 22.22793579 C110.14147438 22.22851113 106.22856624 22.21672761 102.31556463 22.20278788 C98.22894752 22.19031063 94.14232781 22.1891124 90.05569458 22.18673706 C82.3138037 22.18051343 74.5719691 22.16409071 66.83010304 22.14403808 C58.01765666 22.12170651 49.20520763 22.11069256 40.39274001 22.10064721 C22.26179473 22.07972521 4.13090188 22.04453213 -14 22 C-14 21.34 -14 20.68 -14 20 C-14.66 20 -15.32 20 -16 20 C-14.46386447 16.43485124 -12.3161548 13.96129644 -9.6875 11.125 C-6.35325722 7.48959981 -3.1177076 3.8217061 0 0 Z " fill="#CFCFCF" transform="translate(280,268)"/>
<path d="M0 0 C2.16903384 1.64189812 2.96605733 2.98112812 3.9609375 5.484375 C2.6409375 6.804375 1.3209375 8.124375 -0.0390625 9.484375 C-4.0390625 7.484375 -4.0390625 7.484375 -5.8125 6.4375 C-10.29739325 4.51765096 -15.26792377 4.96702261 -20.0390625 5.484375 C-24.49317614 7.5942183 -27.23197699 9.86626758 -29.0390625 14.484375 C-29.75761382 20.44236299 -29.56059806 25.43684069 -26.0390625 30.484375 C-23.19776765 33.75186407 -21.68187717 35.20323856 -17.4140625 35.93359375 C-11.13366013 36.18105526 -7.96600024 35.20962061 -3.0390625 31.484375 C0.04950173 31.6559619 0.74736798 32.27080548 2.9609375 34.484375 C2.7443548 37.00781526 2.29554941 38.15854556 0.47265625 39.93359375 C-0.12933594 40.34222656 -0.73132813 40.75085938 -1.3515625 41.171875 C-1.94582031 41.58824219 -2.54007812 42.00460938 -3.15234375 42.43359375 C-8.96119569 45.66875145 -17.06863269 45.53556805 -23.35546875 43.87109375 C-29.45554583 41.16127477 -33.58341856 36.19658591 -37.20703125 30.71875 C-39.42041258 24.77483393 -39.15302781 15.8163248 -37.1640625 9.8671875 C-33.91108115 4.36708087 -29.01261112 0.00572546 -23.3515625 -2.890625 C-14.7008992 -4.52282562 -7.8465484 -4.1137244 0 0 Z " fill="#FEF6F6" transform="translate(327.0390625,138.515625)"/>
<path d="M0 0 C11.88 0 23.76 0 36 0 C37.99583887 3.99167775 38.38677535 6.25709771 38.6875 10.625 C38.77386719 11.77226562 38.86023438 12.91953125 38.94921875 14.1015625 C39 17 39 17 38 19 C24.8 19 11.6 19 -2 19 C-3.00496852 14.98012591 -2.93017724 12.3353027 -2.5625 8.25 C-2.46066406 7.07953125 -2.35882813 5.9090625 -2.25390625 4.703125 C-2.17011719 3.81109375 -2.08632813 2.9190625 -2 2 C-1.34 2 -0.68 2 0 2 C0 1.34 0 0.68 0 0 Z " fill="#BEBEBE" transform="translate(323,229)"/>
<path d="M0 0 C17.91267123 0 17.91267123 0 23.34765625 5.28125 C25.36220837 8.59597406 25.50507213 10.64388378 25.4375 14.5 C25.43621094 15.6034375 25.43492187 16.706875 25.43359375 17.84375 C24.80478878 22.42099699 22.66317921 26.15086062 19 29 C13 31 13 31 0 31 C0 20.77 0 10.54 0 0 Z " fill="#F85757" transform="translate(345,144)"/>
<path d="M0 0 C0.71930065 -0.0055344 1.4386013 -0.01106879 2.17969894 -0.0167709 C4.59052812 -0.03038685 7.00032368 -0.01540402 9.41113281 -0.00050354 C11.13920532 -0.00428639 12.86727481 -0.00978616 14.59533691 -0.01687622 C19.28956243 -0.03085256 23.98342231 -0.01964582 28.67762756 -0.00316501 C33.5871714 0.01067222 38.49669371 0.00422693 43.40625 0.0007019 C51.65142722 -0.00200127 59.89645896 0.0114846 68.14160156 0.03465271 C77.67788744 0.06126311 87.21393004 0.06300994 96.75024033 0.05126435 C105.91901516 0.0404899 115.08770189 0.04667102 124.25646973 0.06081963 C128.16070638 0.06658232 132.0648786 0.06649452 135.96911621 0.06175423 C140.56563219 0.05698637 145.16188135 0.06707816 149.75834656 0.08870888 C151.44662069 0.09427953 153.13492045 0.09473949 154.82319641 0.08975601 C157.12526685 0.08381229 159.42651898 0.09628991 161.72851562 0.11352539 C163.0175177 0.11595529 164.30651978 0.11838518 165.63458252 0.12088871 C169.08577393 0.52729051 170.54124212 0.93512334 172.86425781 3.50120544 C173.35644913 5.52579021 173.35644913 5.52579021 173.34527588 7.88613892 C173.35078587 8.7803036 173.35629585 9.67446829 173.36197281 10.59572887 C173.34038416 12.06910701 173.34038416 12.06910701 173.31835938 13.57225037 C173.31884151 14.62330365 173.31932365 15.67435694 173.3198204 16.75726032 C173.3168304 20.16574056 173.28635 23.57335012 173.25488281 26.98167419 C173.24900305 29.08343586 173.24492149 31.18520336 173.24267578 33.28697205 C173.22168833 41.08763906 173.1658436 48.88818077 173.11425781 56.68870544 C173.03175781 74.11683044 172.94925781 91.54495544 172.86425781 109.50120544 C112.14425781 109.50120544 51.42425781 109.50120544 -11.13574219 109.50120544 C-11.21824219 92.25870544 -11.30074219 75.01620544 -11.38574219 57.25120544 C-11.4221582 51.80588318 -11.45857422 46.36056091 -11.49609375 40.75022888 C-11.51416016 34.10325623 -11.51416016 34.10325623 -11.51751709 30.99198914 C-11.52366139 28.81796496 -11.53773384 26.64395446 -11.55804443 24.47001648 C-11.58726684 21.17776286 -11.59136823 17.8863425 -11.58984375 14.59397888 C-11.60423618 13.62469326 -11.61862862 12.65540764 -11.63345718 11.65674973 C-11.6279472 10.76960407 -11.62243721 9.88245842 -11.61676025 8.96842957 C-11.62044743 8.19781063 -11.6241346 7.4271917 -11.6279335 6.63322067 C-10.18489617 0.38244486 -5.6469691 0.00091685 0 0 Z M-8.04691696 2.75612259 C-9.40645372 4.93508045 -9.50578088 6.24717954 -9.49650574 8.81021118 C-9.50063823 9.68758281 -9.50477072 10.56495443 -9.50902843 11.46891308 C-9.49823411 12.43242845 -9.48743979 13.39594381 -9.47631836 14.38865662 C-9.47667996 15.41988553 -9.47704157 16.45111444 -9.47741413 17.51359272 C-9.4751719 20.85731619 -9.45231178 24.20054027 -9.42871094 27.54417419 C-9.42430106 29.60622415 -9.42123992 31.66827744 -9.41955566 33.73033142 C-9.40381579 41.38317392 -9.36193227 49.03594456 -9.32324219 56.68870544 C-9.26136719 73.78683044 -9.19949219 90.88495544 -9.13574219 108.50120544 C50.59425781 108.50120544 110.32425781 108.50120544 171.86425781 108.50120544 C171.98800781 83.13245544 171.98800781 83.13245544 172.11425781 57.25120544 C172.15067383 51.91029724 172.18708984 46.56938904 172.22460938 41.06663513 C172.23798679 36.28066007 172.23798679 36.28066007 172.24603271 31.49467468 C172.25217662 29.36231652 172.26624825 27.2299723 172.28656006 25.09770203 C172.31578576 21.86835066 172.31988375 18.63984868 172.31835938 15.41038513 C172.33994802 13.98456179 172.33994802 13.98456179 172.36197281 12.52993393 C172.35646282 11.65958134 172.35095284 10.78922874 172.34527588 9.89250183 C172.35080664 8.75869646 172.35080664 8.75869646 172.35644913 7.60198593 C171.62863795 4.4955282 170.43009271 3.37043969 167.86425781 1.50120544 C164.56656237 0.90119693 164.56656237 0.90119693 160.79771423 1 C160.08587512 0.9944656 159.37403601 0.98893121 158.64062601 0.9832291 C156.25509812 0.96961438 153.87061503 0.98459518 151.48510742 0.99949646 C149.77511653 0.99571359 148.06512869 0.99021382 146.35514832 0.98312378 C141.71057375 0.96914865 137.06636877 0.98035285 132.42181468 0.99683499 C127.56518805 1.0106711 122.70858319 1.00422714 117.85194397 1.0007019 C109.69672681 0.9979989 101.54165677 1.01148403 93.38647461 1.03465271 C83.95127869 1.06127193 74.51632864 1.06300706 65.08110803 1.05126435 C56.0116415 1.04049469 46.94226409 1.04666667 37.87280464 1.06081963 C34.00960756 1.06658559 30.14647557 1.06649198 26.28327751 1.06175423 C21.73683067 1.05699069 17.19065394 1.06706009 12.6442585 1.08870888 C10.97330257 1.09428513 9.30232073 1.09473439 7.63136292 1.08975601 C5.35521229 1.08382374 3.0798933 1.09626754 0.80381775 1.11352539 C-0.47135743 1.11595529 -1.74653261 1.11838518 -3.06034946 1.12088871 C-6.08220001 1.26449619 -6.08220001 1.26449619 -8.04691696 2.75612259 Z " fill="#3C2624" transform="translate(260.1357421875,102.49879455566406)"/>
<path d="M0 0 C5.28 0 10.56 0 16 0 C15.67 1.32 15.34 2.64 15 4 C15.63421875 4.68449219 16.2684375 5.36898437 16.921875 6.07421875 C20.04713552 10.47425659 19.43341047 14.56061172 19.25 19.8125 C19.23195313 20.79154297 19.21390625 21.77058594 19.1953125 22.77929688 C19.14834034 25.18662003 19.07660146 27.59343743 19 30 C13.06 30 7.12 30 1 30 C1 31.32 1 32.64 1 34 C-2.96 33.67 -6.92 33.34 -11 33 C-11 32.67 -11 32.34 -11 32 C-9.741875 31.979375 -8.48375 31.95875 -7.1875 31.9375 C-6.47980469 31.92589844 -5.77210938 31.91429687 -5.04296875 31.90234375 C-3 32 -3 32 0 33 C0 22.11 0 11.22 0 0 Z " fill="#B5BBC4" transform="translate(507,179)"/>
<path d="M0 0 C2.64 0 5.28 0 8 0 C8 12.87 8 25.74 8 39 C14.93 39 21.86 39 29 39 C29 41.31 29 43.62 29 46 C19.43 46 9.86 46 0 46 C0 30.82 0 15.64 0 0 Z " fill="#FEFAF9" transform="translate(385,136)"/>
<path d="M0 0 C1.32 0 2.64 0 4 0 C4 1.65 4 3.3 4 5 C5.65 5 7.3 5 9 5 C9 5.66 9 6.32 9 7 C12.3 7 15.6 7 19 7 C19.02465746 11.1117256 19.04283959 15.22342278 19.05493164 19.33520508 C19.0599708 20.73495228 19.06680216 22.1346942 19.07543945 23.53442383 C19.0875232 25.54245777 19.09269807 27.55052957 19.09765625 29.55859375 C19.10551147 31.37315063 19.10551147 31.37315063 19.11352539 33.22436523 C19 36 19 36 18 37 C16.14453125 37.1328125 16.14453125 37.1328125 13.8125 37.125 C12.67748047 37.12886719 12.67748047 37.12886719 11.51953125 37.1328125 C8.65866509 36.98200715 5.82585891 36.47097649 3 36 C3 24.45 3 12.9 3 1 C2.01 0.67 1.02 0.34 0 0 Z " fill="#BFC8C4" transform="translate(480,236)"/>
<path d="M0 0 C2.949375 -0.020625 5.89875 -0.04125 8.9375 -0.0625 C9.86812256 -0.071604 10.79874512 -0.08070801 11.75756836 -0.09008789 C12.48596924 -0.09258545 13.21437012 -0.09508301 13.96484375 -0.09765625 C14.7137085 -0.10289307 15.46257324 -0.10812988 16.23413086 -0.11352539 C18 0 18 0 19 1 C19.08726223 2.78071246 19.10699041 4.5648314 19.09765625 6.34765625 C19.09443359 7.42724609 19.09121094 8.50683594 19.08789062 9.61914062 C19.07951172 10.75544922 19.07113281 11.89175781 19.0625 13.0625 C19.05798828 14.20267578 19.05347656 15.34285156 19.04882812 16.51757812 C19.0369976 19.34507418 19.0190615 22.17254345 19 25 C12.73 25 6.46 25 0 25 C0 16.75 0 8.5 0 0 Z " fill="#BBD6EE" transform="translate(204,114)"/>
<path d="M0 0 C5.28 0 10.56 0 16 0 C16 10.23 16 20.46 16 31 C10.39 31 4.78 31 -1 31 C-1 29.35 -1 27.7 -1 26 C2.96 26 6.92 26 11 26 C11 25.34 11 24.68 11 24 C7.37 24 3.74 24 0 24 C0 23.34 0 22.68 0 22 C3.63 22 7.26 22 11 22 C11 21.34 11 20.68 11 20 C7.04 20 3.08 20 -1 20 C-1 19.01 -1 18.02 -1 17 C0.11375 16.7525 1.2275 16.505 2.375 16.25 C6.04615198 15.38994661 6.04615198 15.38994661 7.4375 12.875 C7.623125 12.25625 7.80875 11.6375 8 11 C6.02 11 4.04 11 2 11 C2 9.02 2 7.04 2 5 C1.34 5 0.68 5 0 5 C0 3.35 0 1.7 0 0 Z " fill="#D55B40" transform="translate(212,243)"/>
<path d="M0 0 C2.08268593 -0.08126087 4.16628658 -0.13930839 6.25 -0.1875 C7.99023438 -0.23970703 7.99023438 -0.23970703 9.765625 -0.29296875 C13 0 13 0 15.3984375 0.9453125 C18.03074534 4.32237084 17.49820156 7.91579496 17.375 12.0625 C17.37371094 12.89072266 17.37242187 13.71894531 17.37109375 14.57226562 C17.28106936 20.71893064 17.28106936 20.71893064 15 23 C12.10243101 23.97407638 9.4181924 24.1351779 6.375 24.125 C5.59898437 24.12757813 4.82296875 24.13015625 4.0234375 24.1328125 C2 24 2 24 0 23 C0 15.33333333 0 7.66666667 0 0 Z " fill="#CC9E9F" transform="translate(179,183)"/>
<path d="M0 0 C2.64 0 5.28 0 8 0 C8 15.18 8 30.36 8 46 C5.36 46 2.72 46 0 46 C0 30.82 0 15.64 0 0 Z " fill="#FEF8F8" transform="translate(274,136)"/>
<path d="M0 0 C11.88 0 23.76 0 36 0 C38.08954032 4.17908064 38.16552619 4.80410573 37 9 C31.60653012 9.02464849 26.21309275 9.04283531 20.81958008 9.05493164 C18.98331125 9.05997231 17.14704646 9.06680477 15.31079102 9.07543945 C12.67723599 9.08751672 10.04373384 9.09323081 7.41015625 9.09765625 C6.17109276 9.10539818 6.17109276 9.10539818 4.90699768 9.11329651 C2.93763632 9.11349205 0.96838386 9.06204152 -1 9 C-2 8 -2 8 -2.0625 4.9375 C-2.041875 3.968125 -2.02125 2.99875 -2 2 C-1.34 2 -0.68 2 0 2 C0 1.34 0 0.68 0 0 Z " fill="#939292" transform="translate(323,229)"/>
<path d="M0 0 C38.61 0 77.22 0 117 0 C117 0.33 117 0.66 117 1 C114.36 1.33 111.72 1.66 109 2 C109 2.33 109 2.66 109 3 C74.61834897 4.29716042 40.39070008 3.82858537 6 3 C6 2.67 6 2.34 6 2 C3.03 1.505 3.03 1.505 0 1 C0 0.67 0 0.34 0 0 Z " fill="#C4C1C5" transform="translate(272,293)"/>
<path d="M0 0 C0 5.28 0 10.56 0 16 C-6.27 16 -12.54 16 -19 16 C-19 11.38 -19 6.76 -19 2 C-12.46296317 0.52686494 -6.69425413 -0.21594368 0 0 Z " fill="#F0FAFE" transform="translate(497,107)"/>
<path d="M0 0 C1.04929687 -0.02578125 2.09859375 -0.0515625 3.1796875 -0.078125 C6.46296009 0.28765073 7.76398793 0.9935549 10.125 3.25 C11.0625 5.125 11.0625 5.125 11.125 7.25 C10.1875 9.875 10.1875 9.875 8.125 12.25 C2.63064403 13.96065067 -2.40999197 14.56090582 -8.13671875 14.62890625 C-8.89040237 14.64590073 -9.644086 14.6628952 -10.42060852 14.68040466 C-12.80115645 14.73299104 -15.18169258 14.77358923 -17.5625 14.8125 C-19.95393503 14.85662954 -22.34524644 14.9034397 -24.73652649 14.95530701 C-26.21672622 14.98692481 -27.69703446 15.01391576 -29.17741394 15.03553772 C-32.85608891 15.10910737 -36.2945712 15.38611873 -39.875 16.25 C-40.205 15.26 -40.535 14.27 -40.875 13.25 C-36.68815807 10.22973621 -33.5986609 9.85146493 -28.484375 9.7734375 C-27.78032532 9.75785797 -27.07627563 9.74227844 -26.35089111 9.72622681 C-24.10893922 9.67893675 -21.86729004 9.65106753 -19.625 9.625 C-16.68216291 9.57638978 -13.73952063 9.5199302 -10.796875 9.4609375 C-9.74723572 9.4416922 -9.74723572 9.4416922 -8.6763916 9.42205811 C-3.68337786 9.31434345 1.18037404 8.93240313 6.125 8.25 C6.125 7.26 6.125 6.27 6.125 5.25 C1.835 4.92 -2.455 4.59 -6.875 4.25 C-7.37 2.765 -7.37 2.765 -7.875 1.25 C-5.18393093 -0.09553453 -3.00334578 0.04405886 0 0 Z " fill="#A5A5A5" transform="translate(377.875,251.75)"/>
<path d="M0 0 C0.44730469 0.40992188 0.89460938 0.81984375 1.35546875 1.2421875 C1.96003906 1.78101563 2.56460938 2.31984375 3.1875 2.875 C3.77917969 3.40867188 4.37085938 3.94234375 4.98046875 4.4921875 C7.21598073 6.16125447 9.38105679 7.0682171 12 8 C12.62375809 19.86873036 11.46166839 29.77281615 3.7578125 39.21875 C-3.92576641 47.00477663 -12.68381582 50.1259565 -23.4375 50.3125 C-29.70779221 50.29220779 -29.70779221 50.29220779 -32 48 C-31.10539062 48.03480469 -30.21078125 48.06960938 -29.2890625 48.10546875 C-17.52766154 48.3687837 -8.86218068 47.08897029 0 39 C4.21644601 34.68772567 7.29525214 29.81164044 9 24 C7.84906278 20.54718834 6.6794007 19.61917837 3.9375 17.3125 C2.638125 16.219375 1.33875 15.12625 0 14 C0 19.61 0 25.22 0 31 C-0.33 31 -0.66 31 -1 31 C-1.09776087 20.61562308 -1.1555538 10.33807949 0 0 Z " fill="#175835" transform="translate(503,243)"/>
<path d="M0 0 C5.94 0 11.88 0 18 0 C18 4.95 18 9.9 18 15 C11.49331109 15.16065899 6.13658838 15.18189809 0 13 C0 8.71 0 4.42 0 0 Z " fill="#F9FDFE" transform="translate(479,125)"/>
<path d="M0 0 C1.08518111 0.91447846 2.16804738 1.83170407 3.25 2.75 C3.85328125 3.26046875 4.4565625 3.7709375 5.078125 4.296875 C5.71234375 4.85890625 6.3465625 5.4209375 7 6 C8.07121094 6.85851562 8.07121094 6.85851562 9.1640625 7.734375 C11.65084885 10.80317518 11.91959731 13.68428462 12.125 17.5 C12.16431641 18.20761475 12.20363281 18.91522949 12.24414062 19.64428711 C12.42937583 28.56879832 8.57925038 35.51069026 2.625 42 C-4.37523904 48.35121026 -13.00424548 51.30180669 -22.375 51.125 C-23.62023437 51.10695312 -24.86546875 51.08890625 -26.1484375 51.0703125 C-27.08945312 51.04710937 -28.03046875 51.02390625 -29 51 C-28.67 50.34 -28.34 49.68 -28 49 C-27.33355469 49.04640625 -26.66710937 49.0928125 -25.98046875 49.140625 C-16.13580311 49.52615037 -7.51862787 47.10455957 0.21484375 40.83203125 C5.33883967 35.57348839 8.45315203 29.11550068 10 22 C9.46375 21.79375 8.9275 21.5875 8.375 21.375 C4.83629327 19.32627505 1.97065146 17.61930105 0 14 C-0.51382627 9.29167357 -0.34891161 4.71676806 0 0 Z " fill="#244777" transform="translate(527,176)"/>
<path d="M0 0 C60.72 0 121.44 0 184 0 C184 0.99 184 1.98 184 3 C183.34 3 182.68 3 182 3 C182 2.34 182 1.68 182 1 C122.6 1 63.2 1 2 1 C0.97120978 11.22504623 0.97120978 11.22504623 4.5 15.6875 C5.325 16.450625 6.15 17.21375 7 18 C4.625 17.6875 4.625 17.6875 2 17 C0 14 0 14 0 0 Z " fill="#C7C4C4" transform="translate(249,212)"/>
<path d="M0 0 C6.98878507 4.71465659 12.14452625 11.00467351 15 19 C14.6484375 21.328125 14.6484375 21.328125 14 23 C13.61328125 22.19175781 13.2265625 21.38351563 12.828125 20.55078125 C12.04695313 18.94783203 12.04695313 18.94783203 11.25 17.3125 C10.48429687 15.72888672 10.48429687 15.72888672 9.703125 14.11328125 C5.3733956 6.19861535 -0.69648409 1.07775046 -9.3515625 -1.4921875 C-18.72206829 -3.28889215 -27.62120545 -2.7061161 -36 2 C-37.7074998 3.28062485 -39.39371931 4.59450439 -41 6 C-41.66 6 -42.32 6 -43 6 C-43.37125 6.804375 -43.37125 6.804375 -43.75 7.625 C-45 10 -45 10 -47 12.875 C-52.02317477 20.72371057 -52.18799864 29.96743894 -51 39 C-48.19747154 48.53712156 -42.161526 55.40322197 -33.64453125 60.375 C-31.79583159 61.31734602 -29.9018372 62.1701074 -28 63 C-28.99 63.495 -28.99 63.495 -30 64 C-39.47566653 60.77686436 -46.3895932 54.57293919 -50.9375 45.75 C-55.02825763 37.0415397 -55.46760815 27.43096872 -52.4375 18.25 C-48.69760363 9.26640278 -42.78091366 2.34769264 -34 -2 C-23.15838075 -5.73804645 -10.15172686 -5.68818981 0 0 Z " fill="#337956" transform="translate(499,228)"/>
<path d="M0 0 C8.113608 6.45400636 13.43599373 12.97334792 15.34765625 23.46875 C16.59583527 35.74968383 13.61520867 43.71592955 7 53.875 C-0.59492855 61.68089879 -9.36264219 65.26116893 -20.125 65.625 C-27.57591296 65.45566107 -34.93918607 64.26262887 -40.5546875 59.046875 C-41.11414063 58.43328125 -41.67359375 57.8196875 -42.25 57.1875 C-39.73635178 58.18755359 -37.23043937 59.19584831 -34.7421875 60.2578125 C-25.4558946 64.00004994 -17.13702747 64.46178507 -7.59765625 61.2265625 C0.93647905 57.44939114 7.56597188 50.63652229 11.125 42.0625 C14.09229983 32.96111817 13.89263127 23.67968504 10.1953125 14.82421875 C5.24918302 5.80087442 -1.51970877 0.35721608 -11.25 -2.8125 C-18.62408653 -4.55607167 -25.82200679 -3.77538801 -33.25 -2.8125 C-25.03471192 -11.02778808 -8.54471743 -4.76532318 0 0 Z " fill="#10B0ED" transform="translate(502.25,93.8125)"/>
<path d="M0 0 C3.48635199 1.35417996 6.30090299 1.30076417 10.03637695 1.27001953 C10.71737961 1.26718964 11.39838226 1.26435974 12.10002136 1.26144409 C14.25998025 1.25031228 16.41951364 1.2252216 18.5793457 1.19970703 C20.05004281 1.18966814 21.52074646 1.18054388 22.99145508 1.17236328 C26.58338856 1.15039617 30.17507555 1.11591523 33.7668457 1.07470703 C34.4268457 2.39470703 35.0868457 3.71470703 35.7668457 5.07470703 C32.4668457 5.07470703 29.1668457 5.07470703 25.7668457 5.07470703 C25.2718457 3.58970703 25.2718457 3.58970703 24.7668457 2.07470703 C24.1068457 2.07470703 23.4468457 2.07470703 22.7668457 2.07470703 C23.2618457 3.55970703 23.2618457 3.55970703 23.7668457 5.07470703 C21.4568457 5.07470703 19.1468457 5.07470703 16.7668457 5.07470703 C16.7668457 4.08470703 16.7668457 3.09470703 16.7668457 2.07470703 C16.1068457 2.07470703 15.4468457 2.07470703 14.7668457 2.07470703 C14.7668457 3.06470703 14.7668457 4.05470703 14.7668457 5.07470703 C12.7868457 5.07470703 10.8068457 5.07470703 8.7668457 5.07470703 C8.7668457 4.08470703 8.7668457 3.09470703 8.7668457 2.07470703 C8.1068457 2.07470703 7.4468457 2.07470703 6.7668457 2.07470703 C6.7668457 3.06470703 6.7668457 4.05470703 6.7668457 5.07470703 C3.10017904 5.07470703 -0.56648763 5.07470703 -4.2331543 5.07470703 C-4.2331543 6.06470703 -4.2331543 7.05470703 -4.2331543 8.07470703 C-6.5431543 8.07470703 -8.8531543 8.07470703 -11.2331543 8.07470703 C-11.2331543 7.08470703 -11.2331543 6.09470703 -11.2331543 5.07470703 C-12.5531543 5.07470703 -13.8731543 5.07470703 -15.2331543 5.07470703 C-15.2331543 4.41470703 -15.2331543 3.75470703 -15.2331543 3.07470703 C-14.5731543 3.07470703 -13.9131543 3.07470703 -13.2331543 3.07470703 C-13.2331543 2.41470703 -13.2331543 1.75470703 -13.2331543 1.07470703 C-7.4831543 0.94970703 -7.4831543 0.94970703 -5.2331543 2.07470703 C-5.2331543 1.41470703 -5.2331543 0.75470703 -5.2331543 0.07470703 C-2.2331543 -0.92529297 -2.2331543 -0.92529297 0 0 Z " fill="#F2F2F2" transform="translate(361.233154296875,267.92529296875)"/>
<path d="M0 0 C0 5.61 0 11.22 0 17 C-5.28 17 -10.56 17 -16 17 C-16 13.7 -16 10.4 -16 7 C-15.175 7.144375 -14.35 7.28875 -13.5 7.4375 C-8.85220405 6.85652551 -7.00811008 4.72885171 -3.734375 1.53125 C-2 0 -2 0 0 0 Z " fill="#217BCE" transform="translate(221,120)"/>
<path d="M0 0 C15.51 0 31.02 0 47 0 C47.495 1.98 47.495 1.98 48 4 C31.83 4 15.66 4 -1 4 C-0.67 2.68 -0.34 1.36 0 0 Z " fill="#FCFCFC" transform="translate(310,285)"/>
<path d="M0 0 C3.5 0.5 3.5 0.5 5.4375 2 C7.43098805 6.69056012 7.09092459 10.83150705 5.4375 15.5 C3.5 17.5 3.5 17.5 0 18.125 C-3.5 17.5 -3.5 17.5 -5.4375 15.5 C-7.09092459 10.83150705 -7.43098805 6.69056012 -5.4375 2 C-3.5 0.5 -3.5 0.5 0 0 Z " fill="#2E7EC5" transform="translate(189.5,117.5)"/>
<path d="M0 0 C8.43197962 6.33020299 14.96309835 13.40811141 17 24 C16.5390625 26.203125 16.5390625 26.203125 16 28 C15.85304688 27.46632812 15.70609375 26.93265625 15.5546875 26.3828125 C12.26186619 15.44458997 6.76727792 6.48983304 -3.27734375 0.68359375 C-11.89733599 -3.32602987 -21.0082188 -3.30730824 -29.9375 -0.25 C-39.6506733 3.79011701 -45.52767041 9.27286689 -49.875 18.8125 C-53.62939131 28.60550775 -52.19236253 35.56187397 -48.77734375 45.3125 C-48 48 -48 48 -49 50 C-49.6509259 48.75264433 -50.29551669 47.50198168 -50.9375 46.25 C-51.29714844 45.55390625 -51.65679687 44.8578125 -52.02734375 44.140625 C-55.38018973 36.76167079 -55.16595869 27.26228054 -53.05859375 19.55859375 C-48.56789372 8.31072752 -42.03028811 2.76622577 -31.5 -2.875 C-21.94729198 -6.07841815 -8.53585853 -5.470576 0 0 Z " fill="#A15A5E" transform="translate(194,164)"/>
<path d="M0 0 C0 4.62 0 9.24 0 14 C-4.62 14 -9.24 14 -14 14 C-14 10.04 -14 6.08 -14 2 C-3.375 0 -3.375 0 0 0 Z " fill="#F0FAFE" transform="translate(477,109)"/>
<path d="M0 0 C0.495 0.99 0.495 0.99 1 2 C1.66 1.67 2.32 1.34 3 1 C4.44848582 0.91657841 5.90070869 0.89267139 7.3515625 0.90234375 C8.62773437 0.90717773 8.62773437 0.90717773 9.9296875 0.91210938 C10.81914062 0.92048828 11.70859375 0.92886719 12.625 0.9375 C13.5221875 0.94201172 14.419375 0.94652344 15.34375 0.95117188 C17.56256648 0.96297409 19.78125018 0.97943845 22 1 C21.01 1.33 20.02 1.66 19 2 C19 2.66 19 3.32 19 4 C16.36 3.67 13.72 3.34 11 3 C11 3.66 11 4.32 11 5 C10.01 5 9.02 5 8 5 C7.67 5.66 7.34 6.32 7 7 C7 6.01 7 5.02 7 4 C5.60587891 4.01740234 5.60587891 4.01740234 4.18359375 4.03515625 C-7.1586004 4.11794599 -7.1586004 4.11794599 -11.25 3.4375 C-13.95294822 2.73389607 -13.95294822 2.73389607 -16 4 C-18 3.66666667 -20 3.33333333 -22 3 C-22.99 3.495 -22.99 3.495 -24 4 C-26.00800456 3.71887936 -28.01014051 3.38932033 -30 3 C-30 3.66 -30 4.32 -30 5 C-30.66 5 -31.32 5 -32 5 C-31.67 6.65 -31.34 8.3 -31 10 C-33.31 10 -35.62 10 -38 10 C-37.67 9.01 -37.34 8.02 -37 7 C-36.01 6.67 -35.02 6.34 -34 6 C-33.67 5.34 -33.34 4.68 -33 4 C-35.97 3.67 -38.94 3.34 -42 3 C-41.67 2.34 -41.34 1.68 -41 1 C-27.47 0.67 -13.94 0.34 0 0 Z " fill="#E4E4E4" transform="translate(337,266)"/>
<path d="M0 0 C4.29 0 8.58 0 13 0 C13 3.96 13 7.92 13 12 C11.5975 12.020625 10.195 12.04125 8.75 12.0625 C7.56664062 12.07990234 7.56664062 12.07990234 6.359375 12.09765625 C4 12 4 12 0 11 C0 7.37 0 3.74 0 0 Z " fill="#FCFEFE" transform="translate(463,125)"/>
<path d="M0 0 C5.64874513 4.2477845 10.88095708 9.7870553 12.6875 16.8125 C12.1925 18.2975 12.1925 18.2975 11.6875 19.8125 C11.33558594 19.09964844 10.98367188 18.38679688 10.62109375 17.65234375 C5.45935547 7.63884103 -0.17665707 0.8045883 -11.1015625 -2.7734375 C-21.7765333 -4.77263698 -32.46192633 -3.6784897 -41.5 2.4375 C-48.23914668 7.88788557 -51.66733155 14.51718491 -53.671875 22.84375 C-53.88328125 23.4934375 -54.0946875 24.143125 -54.3125 24.8125 C-54.9725 25.1425 -55.6325 25.4725 -56.3125 25.8125 C-55.0162177 15.3081434 -50.8054222 7.01811231 -42.52734375 0.28125 C-29.49698425 -8.35969387 -13.05753239 -8.58738616 0 0 Z " fill="#37659F" transform="translate(525.3125,163.1875)"/>
<path d="M0 0 C4.29 0 8.58 0 13 0 C13 10.89 13 21.78 13 33 C6.73 33 0.46 33 -6 33 C-6 32.34 -6 31.68 -6 31 C-1.05 31 3.9 31 9 31 C8.979375 29.246875 8.95875 27.49375 8.9375 25.6875 C8.93042914 19.74090532 9.34878261 13.90747207 10 8 C9.01 7.67 8.02 7.34 7 7 C7.99 7 8.98 7 10 7 C10 5.35 10 3.7 10 2 C6.7 2 3.4 2 0 2 C0 1.34 0 0.68 0 0 Z " fill="#C5CBC8" transform="translate(489,241)"/>
<path d="M0 0 C0.99 0 1.98 0 3 0 C2.69075786 2.10464793 2.3774944 4.2087053 2.0625 6.3125 C1.88847656 7.48425781 1.71445312 8.65601563 1.53515625 9.86328125 C1 13 1 13 0 16 C-1.32 16 -2.64 16 -4 16 C-4.33 13.36 -4.66 10.72 -5 8 C-5.66 10.64 -6.32 13.28 -7 16 C-7.99 16 -8.98 16 -10 16 C-11.26305335 10.92523206 -12.27036084 6.27203646 -12 1 C-11.34 1 -10.68 1 -10 1 C-9.34 2.98 -8.68 4.96 -8 7 C-7.67 5.02 -7.34 3.04 -7 1 C-5.68 1 -4.36 1 -3 1 C-2.67 2.65 -2.34 4.3 -2 6 C-1.34 4.02 -0.68 2.04 0 0 Z " fill="#4C70A5" transform="translate(499,183)"/>
<path d="M0 0 C0.33 0 0.66 0 1 0 C1 4.29 1 8.58 1 13 C7.27 13 13.54 13 20 13 C20 13.66 20 14.32 20 15 C14.06 15 8.12 15 2 15 C2 19.29 2 23.58 2 28 C2.99 28.33 3.98 28.66 5 29 C2.36 28.67 -0.28 28.34 -3 28 C-2.34 27.67 -1.68 27.34 -1 27 C-1 23.04 -1 19.08 -1 15 C-5.29 15 -9.58 15 -14 15 C-14 18.63 -14 22.26 -14 26 C-14.33 26 -14.66 26 -15 26 C-15.02686553 24.02090602 -15.04633375 22.04171029 -15.0625 20.0625 C-15.07410156 18.96035156 -15.08570313 17.85820313 -15.09765625 16.72265625 C-15 14 -15 14 -14 13 C-11.64686445 12.92728259 -9.29166332 12.91629132 -6.9375 12.9375 C-5.64714844 12.94652344 -4.35679687 12.95554687 -3.02734375 12.96484375 C-2.02832031 12.97644531 -1.02929688 12.98804687 0 13 C0 8.71 0 4.42 0 0 Z " fill="#53C6F5" transform="translate(477,110)"/>
<path d="M0 0 C4.95 0 9.9 0 15 0 C15 2.97 15 5.94 15 9 C12.11584117 10.44207941 9.58278472 10.09394887 6.375 10.0625 C5.18648437 10.05347656 3.99796875 10.04445312 2.7734375 10.03515625 C1.85820312 10.02355469 0.94296875 10.01195312 0 10 C0.185625 9.278125 0.37125 8.55625 0.5625 7.8125 C1.22366086 4.62543759 1.22366086 4.62543759 0 0 Z " fill="#953437" transform="translate(179,195)"/>
<path d="M0 0 C0.74609375 1.69140625 0.74609375 1.69140625 1 4 C-4.93937485 12.97473104 -13.14317956 18.7435878 -23.4296875 21.49609375 C-33.84142082 23.53729983 -43.46583358 21.19407354 -52.23828125 15.33984375 C-54.7562795 13.42482512 -56.86637031 11.33365748 -59 9 C-58.67 8.34 -58.34 7.68 -58 7 C-57.21689453 7.79664063 -57.21689453 7.79664063 -56.41796875 8.609375 C-48.91536911 15.80976835 -41.89879767 19.13017633 -31.4375 19.4375 C-20.67846562 19.05461621 -12.4427973 15.93898378 -5 8 C-3.96986723 6.35178756 -2.96885372 4.68496298 -2 3 C-1.34 2.01 -0.68 1.02 0 0 Z " fill="#2B7AC6" transform="translate(231,140)"/>
<path d="M0 0 C5.61 0 11.22 0 17 0 C17 0.66 17 1.32 17 2 C14.953125 3.9453125 14.953125 3.9453125 12.25 6.125 C11.36828125 6.84945312 10.4865625 7.57390625 9.578125 8.3203125 C7 10 7 10 3 10 C2.01 9.34 1.02 8.68 0 8 C0 5.36 0 2.72 0 0 Z " fill="#2E84D2" transform="translate(204,116)"/>
<path d="M0 0 C-0.72445313 0.4125 -1.44890625 0.825 -2.1953125 1.25 C-9.99076898 5.90648601 -16.38155954 10.95447842 -19 20 C-20.92478343 30.01174665 -21.60349541 40.1263796 -16 49 C-14.48405088 51.18130335 -12.92631352 53.29487293 -11.26953125 55.37109375 C-10 57 -10 57 -9 59 C-15.51225831 56.17895707 -18.7532298 50.17168728 -21.375 43.8125 C-24.4045822 34.60918936 -24.0395698 25.50042642 -20.3203125 16.56640625 C-16.92484756 9.96634571 -8.56557483 -2.85519161 0 0 Z " fill="#1DA8DF" transform="translate(469,92)"/>
<path d="M0 0 C0 0.33 0 0.66 0 1 C-0.75023437 1.08636719 -1.50046875 1.17273438 -2.2734375 1.26171875 C-13.14170573 2.75371023 -22.10359067 6.1358152 -29 15 C-33.41132497 21.88664525 -35.80417099 29.82426158 -35 38 C-34.08628139 41.37373027 -33.06151426 44.69050667 -31.97265625 48.01171875 C-31.21625076 50.33561514 -30.54978837 52.62144189 -30 55 C-36.66632922 47.87392394 -37.58216186 39.90558125 -37.34765625 30.43359375 C-36.42862185 21.35683825 -31.94860219 13.1176105 -24.9296875 7.27734375 C-16.94325923 1.61449304 -9.72702131 -0.46319149 0 0 Z " fill="#DF664D" transform="translate(210,224)"/>
<path d="M0 0 C5.28 0 10.56 0 16 0 C15.67 1.32 15.34 2.64 15 4 C15.33 4.99 15.66 5.98 16 7 C10.72 7 5.44 7 0 7 C0 4.69 0 2.38 0 0 Z " fill="#7C8FAD" transform="translate(507,179)"/>
<path d="M0 0 C0.66 0 1.32 0 2 0 C2.62375809 11.86873036 1.46166839 21.77281615 -6.2421875 31.21875 C-13.92576641 39.00477663 -22.68381582 42.1259565 -33.4375 42.3125 C-39.70779221 42.29220779 -39.70779221 42.29220779 -42 40 C-41.10539062 40.03480469 -40.21078125 40.06960938 -39.2890625 40.10546875 C-27.52766154 40.3687837 -18.86218068 39.08897029 -10 31 C-3.07662361 23.91927415 0.16895593 15.54394515 0.0625 5.75 C0.05347656 4.67234375 0.04445313 3.5946875 0.03515625 2.484375 C0.02355469 1.66453125 0.01195312 0.8446875 0 0 Z " fill="#215A3C" transform="translate(513,251)"/>
<path d="M0 0 C2.31 0 4.62 0 7 0 C9 2 9 2 9.25 5 C9 8 9 8 7 10 C5.68 10 4.36 10 3 10 C3 11.98 3 13.96 3 16 C2.01 16 1.02 16 0 16 C0 10.72 0 5.44 0 0 Z " fill="#CA563C" transform="translate(194,250)"/>
<path d="M0 0 C1.32 0 2.64 0 4 0 C3.690625 0.721875 3.38125 1.44375 3.0625 2.1875 C2.042684 4.88701295 1.2214175 7.12157253 1 10 C2.37168238 12.19038423 2.37168238 12.19038423 4 14 C4 14.66 4 15.32 4 16 C0.73045798 15.43628586 -0.82575883 14.50037734 -3 12 C-3.33 13.32 -3.66 14.64 -4 16 C-4.99 16 -5.98 16 -7 16 C-6.47731534 13.23723823 -5.89130413 10.6739124 -5 8 C-5.95093297 6.30485863 -6.95107762 4.63631892 -8 3 C-8 2.34 -8 1.68 -8 1 C-6.68 1 -5.36 1 -4 1 C-3.67 2.32 -3.34 3.64 -3 5 C-2.34 5 -1.68 5 -1 5 C-0.67 3.35 -0.34 1.7 0 0 Z " fill="#327C55" transform="translate(471,249)"/>
<path d="M0 0 C5.28 0 10.56 0 16 0 C16 2.31 16 4.62 16 7 C10.72 7 5.44 7 0 7 C0 4.69 0 2.38 0 0 Z " fill="#7186A4" transform="translate(507,188)"/>
<path d="M0 0 C1.32 0 2.64 0 4 0 C7.44419134 9.41002278 7.44419134 9.41002278 7 14 C6.01 13.67 5.02 13.34 4 13 C4 12.34 4 11.68 4 11 C2.35 11 0.7 11 -1 11 C-1 11.99 -1 12.98 -1 14 C-1.99 14 -2.98 14 -4 14 C-3.71572583 12.41532272 -3.42225182 10.8322943 -3.125 9.25 C-2.96257812 8.36828125 -2.80015625 7.4865625 -2.6328125 6.578125 C-2.03203736 4.13052256 -1.22002883 2.19400143 0 0 Z " fill="#A0484B" transform="translate(165,188)"/>
<path d="M0 0 C0.66 0 1.32 0 2 0 C2.10807131 1.93627769 2.1856225 3.87427756 2.25 5.8125 C2.29640625 6.89144531 2.3428125 7.97039062 2.390625 9.08203125 C2 12 2 12 0.34820557 13.66108704 C-2.61709276 15.3518574 -4.55657806 15.36203837 -7.96191406 15.34057617 C-9.16285706 15.34034958 -10.36380005 15.34012299 -11.60113525 15.33988953 C-12.89291687 15.32440567 -14.18469849 15.30892181 -15.515625 15.29296875 C-16.85511805 15.28737052 -18.19461726 15.28310149 -19.53411865 15.28010559 C-23.05237921 15.26867454 -26.57026571 15.23922294 -30.08837891 15.20599365 C-33.68126364 15.17525489 -37.27420906 15.16159216 -40.8671875 15.14648438 C-47.91161096 15.11435113 -54.955781 15.06317621 -62 15 C-62 14.67 -62 14.34 -62 14 C-61.28003342 13.99191315 -60.56006683 13.98382629 -59.81828308 13.97549438 C-53.03492739 13.89756976 -46.25174984 13.81028552 -39.46865368 13.71247292 C-35.98134023 13.66251626 -32.49405697 13.6161864 -29.0065918 13.578125 C-24.99768923 13.53421416 -20.98915548 13.4745654 -16.98046875 13.4140625 C-15.72727341 13.40251129 -14.47407806 13.39096008 -13.1829071 13.37905884 C-12.02193008 13.35918915 -10.86095306 13.33931946 -9.66479492 13.31884766 C-8.64109299 13.30552399 -7.61739105 13.29220032 -6.56266785 13.2784729 C-3.76006168 13.17339588 -3.76006168 13.17339588 -1 11 C-0.41651248 8.3443272 -0.41651248 8.3443272 -0.3125 5.375 C-0.24675781 4.37210938 -0.18101562 3.36921875 -0.11328125 2.3359375 C-0.07589844 1.56507813 -0.03851563 0.79421875 0 0 Z " fill="#D8D2D1" transform="translate(431,215)"/>
<path d="M0 0 C0 0.33 0 0.66 0 1 C-1.03898437 1.14695312 -2.07796875 1.29390625 -3.1484375 1.4453125 C-14.80554395 3.252171 -23.8194123 6.31231346 -31.53515625 15.7890625 C-34.06041158 19.60051454 -35.56723636 23.68010962 -37 28 C-37.61875 29.794375 -37.61875 29.794375 -38.25 31.625 C-38.4975 32.40875 -38.745 33.1925 -39 34 C-40.67848901 28.89459594 -38.99911327 24.81165885 -37 20 C-31.71993004 10.26754672 -24.26833544 4.7518918 -14 1 C-9.39882283 -0.33191971 -4.74932641 -0.09312405 0 0 Z " fill="#3B96E2" transform="translate(204,90)"/>
<path d="M0 0 C5.28 0 10.56 0 16 0 C16 1.65 16 3.3 16 5 C15 6 15 6 13.14453125 6.1328125 C8.65015255 6.11775595 4.4238331 5.90745294 0 5 C0 3.35 0 1.7 0 0 Z " fill="#A7B8B0" transform="translate(483,267)"/>
<path d="M0 0 C7.76208502 0.39805564 13.69245715 5.31889179 18.8125 10.8125 C25.65086944 19.0947015 27.20469272 27.56067116 27 38 C26.34 38 25.68 38 25 38 C24.90203125 37.01 24.8040625 36.02 24.703125 35 C23.51177381 24.06173374 21.23755167 15.72859538 13 8 C8.96671428 5.00475049 4.76374408 2.63753703 0 1 C0 0.67 0 0.34 0 0 Z " fill="#E2674C" transform="translate(216,225)"/>
<path d="M0 0 C11.88 0 23.76 0 36 0 C31.210685 4.789315 21.09099831 3.21951443 14.75 3.25 C13.66203125 3.270625 12.5740625 3.29125 11.453125 3.3125 C10.4115625 3.31765625 9.37 3.3228125 8.296875 3.328125 C7.35166992 3.3374707 6.40646484 3.34681641 5.43261719 3.35644531 C3 3 3 3 0 0 Z " fill="#DCDCDD" transform="translate(360,267)"/>
<path d="M0 0 C0.99 0.33 1.98 0.66 3 1 C0.01646421 4.68037068 -2.98631055 8.3442845 -6 12 C-6.67675781 12.82886719 -7.35351562 13.65773438 -8.05078125 14.51171875 C-8.65277344 15.22972656 -9.25476563 15.94773437 -9.875 16.6875 C-10.40867187 17.33074219 -10.94234375 17.97398437 -11.4921875 18.63671875 C-13 20 -13 20 -16 20 C-14.46386447 16.43485124 -12.3161548 13.96129644 -9.6875 11.125 C-6.35325722 7.48959981 -3.1177076 3.8217061 0 0 Z " fill="#D1C8C6" transform="translate(280,268)"/>
<path d="M0 0 C-0.70125 0.21914062 -1.4025 0.43828125 -2.125 0.6640625 C-12.64853442 4.18143949 -19.87627916 8.91317653 -25 19 C-25.9283558 21.66103605 -26.69989867 24.29188679 -27.359375 27.03125 C-27.57078125 27.6809375 -27.7821875 28.330625 -28 29 C-28.66 29.33 -29.32 29.66 -30 30 C-28.70500644 19.50608665 -24.50125154 11.19813106 -16.21875 4.4765625 C-11.33919788 1.22925493 -5.85570424 -2.04143818 0 0 Z " fill="#3B6EA5" transform="translate(499,159)"/>
<path d="M0 0 C3 1 3 1 5 2 C3.25132925 4.19305243 2.4193869 4.94290357 -0.41015625 5.328125 C-1.28542969 5.30234375 -2.16070312 5.2765625 -3.0625 5.25 C-3.94035156 5.23453125 -4.81820312 5.2190625 -5.72265625 5.203125 C-8 5 -8 5 -10 4 C-10 3.01 -10 2.02 -10 1 C-6.82587823 -0.58706088 -3.46361333 -0.28477127 0 0 Z " fill="#953437" transform="translate(189,184)"/>
<path d="M0 0 C12.87 0 25.74 0 39 0 C39 0.33 39 0.66 39 1 C32.73 1.33 26.46 1.66 20 2 C20 2.33 20 2.66 20 3 C17.04112541 3.08069658 14.0844341 3.14034665 11.125 3.1875 C10.28324219 3.21263672 9.44148438 3.23777344 8.57421875 3.26367188 C7.76855469 3.27333984 6.96289062 3.28300781 6.1328125 3.29296875 C5.38918457 3.3086792 4.64555664 3.32438965 3.87939453 3.34057617 C2.94909424 3.17199097 2.94909424 3.17199097 2 3 C1.34 2.01 0.68 1.02 0 0 Z " fill="#B2B1B1" transform="translate(268,292)"/>
<path d="M0 0 C0 1.32 0 2.64 0 4 C-2.88415883 5.44207941 -5.41721528 5.09394887 -8.625 5.0625 C-9.81351563 5.05347656 -11.00203125 5.04445312 -12.2265625 5.03515625 C-13.14179688 5.02355469 -14.05703125 5.01195312 -15 5 C-15 3.68 -15 2.36 -15 1 C-12.8750734 0.83240016 -10.75005624 0.66594799 -8.625 0.5 C-7.44164062 0.4071875 -6.25828125 0.314375 -5.0390625 0.21875 C-3.36213157 0.09804546 -1.68126944 0 0 0 Z " fill="#912C30" transform="translate(194,189)"/>
<path d="M0 0 C6.27 0 12.54 0 19 0 C19.33 0.99 19.66 1.98 20 3 C13.73 3 7.46 3 1 3 C0.67 2.01 0.34 1.02 0 0 Z " fill="#FBFBFB" transform="translate(386,281)"/>
<path d="M0 0 C6.27 0 12.54 0 19 0 C18.67 0.99 18.34 1.98 18 3 C11.73 3 5.46 3 -1 3 C-0.67 2.01 -0.34 1.02 0 0 Z " fill="#FBFBFB" transform="translate(272,281)"/>
<path d="M0 0 C9.77887675 3.71597317 15.33706404 9.67412807 20 19 C20.039992 20.99960012 20.04346799 23.00047242 20 25 C18.28013242 22.42019863 17.17083119 20.12838519 15.9375 17.3125 C12.53194626 10.38990117 7.03936073 5.19245385 0 2 C0 1.34 0 0.68 0 0 Z " fill="#378FDA" transform="translate(214,93)"/>
<path d="M0 0 C0.33 0.66 0.66 1.32 1 2 C1.66 1.67 2.32 1.34 3 1 C4.44848582 0.91657841 5.90070869 0.89267139 7.3515625 0.90234375 C8.20234375 0.90556641 9.053125 0.90878906 9.9296875 0.91210938 C10.81914062 0.92048828 11.70859375 0.92886719 12.625 0.9375 C13.5221875 0.94201172 14.419375 0.94652344 15.34375 0.95117188 C17.56256648 0.96297409 19.78125018 0.97943845 22 1 C21.01 1.33 20.02 1.66 19 2 C19 2.66 19 3.32 19 4 C16.36 3.67 13.72 3.34 11 3 C11 3.66 11 4.32 11 5 C10.01 5 9.02 5 8 5 C7.67 5.66 7.34 6.32 7 7 C7 6.01 7 5.02 7 4 C6.05125 4.020625 5.1025 4.04125 4.125 4.0625 C1 4 1 4 -1 3 C-0.67 2.01 -0.34 1.02 0 0 Z " fill="#D6D5D6" transform="translate(337,266)"/>
<path d="M0 0 C7.8187104 0.46569122 15.36399015 1.22458462 23 3 C22.67 3.66 22.34 4.32 22 5 C14.23374667 5.33047887 7.2990403 3.62016831 0 1 C0 0.67 0 0.34 0 0 Z " fill="#C6482D" transform="translate(188,277)"/>
<path d="M0 0 C4.95 0 9.9 0 15 0 C15 1.32 15 2.64 15 4 C10.05 4 5.1 4 0 4 C0 2.68 0 1.36 0 0 Z " fill="#902B2F" transform="translate(179,195)"/>
<path d="M0 0 C1.98 0.495 1.98 0.495 4 1 C4.125 8.75 4.125 8.75 3 11 C2.01 11 1.02 11 0 11 C-1.49297212 8.01405576 -1.11755228 5.29146376 -1 2 C-0.67 1.34 -0.34 0.68 0 0 Z " fill="#E6EFF8" transform="translate(188,121)"/>
<path d="M0 0 C3.96 0 7.92 0 12 0 C12 3.96 12 7.92 12 12 C11.34 11.67 10.68 11.34 10 11 C10 10.01 10 9.02 10 8 C9.01 7.67 8.02 7.34 7 7 C7.99 7 8.98 7 10 7 C10 5.35 10 3.7 10 2 C6.7 2 3.4 2 0 2 C0 1.34 0 0.68 0 0 Z " fill="#EDF0EE" transform="translate(489,241)"/>
<path d="M0 0 C4.95 0 9.9 0 15 0 C15 0.99 15 1.98 15 3 C10.05 3 5.1 3 0 3 C0 2.01 0 1.02 0 0 Z " fill="#667C9E" transform="translate(508,201)"/>
<path d="M0 0 C3.63 0 7.26 0 11 0 C11 1.32 11 2.64 11 4 C7.7 4 4.4 4 1 4 C0.67 2.68 0.34 1.36 0 0 Z " fill="#FBFBFB" transform="translate(359,285)"/>
<path d="M0 0 C3.3 0 6.6 0 10 0 C10 1.32 10 2.64 10 4 C6.37 4 2.74 4 -1 4 C-0.67 2.68 -0.34 1.36 0 0 Z " fill="#FBFBFB" transform="translate(298,285)"/>
<path d="M0 0 C6.93 0.99 13.86 1.98 21 3 C20.67 3.66 20.34 4.32 20 5 C16.7 5 13.4 5 10 5 C10 4.34 10 3.68 10 3 C8.88625 3.2784375 8.88625 3.2784375 7.75 3.5625 C5.02330072 3.99629307 3.52266846 4.08114362 1 3 C0.67 2.01 0.34 1.02 0 0 Z " fill="#1D70BC" transform="translate(183,146)"/>
<path d="M0 0 C4.62 0 9.24 0 14 0 C14.33 0.99 14.66 1.98 15 3 C10.38 3 5.76 3 1 3 C0.67 2.01 0.34 1.02 0 0 Z " fill="#F9F9F9" transform="translate(388,277)"/>
<path d="M0 0 C3.0390625 -0.29296875 3.0390625 -0.29296875 6.625 -0.1875 C7.81351562 -0.16042969 9.00203125 -0.13335937 10.2265625 -0.10546875 C11.14179688 -0.07066406 12.05703125 -0.03585937 13 0 C12.67 0.99 12.34 1.98 12 3 C7.38 3 2.76 3 -2 3 C-1.34 2.01 -0.68 1.02 0 0 Z " fill="#F9F9F9" transform="translate(276,277)"/>
<path d="M0 0 C2.64 0 5.28 0 8 0 C8 1.65 8 3.3 8 5 C5.36 5 2.72 5 0 5 C0 3.35 0 1.7 0 0 Z " fill="#628E78" transform="translate(491,255)"/>
<path d="M0 0 C2.64 0 5.28 0 8 0 C8 1.65 8 3.3 8 5 C5.69 5 3.38 5 1 5 C0.67 3.35 0.34 1.7 0 0 Z " fill="#608D75" transform="translate(491,261)"/>
<path d="M0 0 C6 6 6 6 6.0625 8.5625 C6.041875 9.366875 6.02125 10.17125 6 11 C5.01 10.67 4.02 10.34 3 10 C3 9.34 3 8.68 3 8 C1.35 8 -0.3 8 -2 8 C-1.34 5.36 -0.68 2.72 0 0 Z " fill="#AE6466" transform="translate(166,191)"/>
<path d="M0 0 C5.94 0 11.88 0 18 0 C18 0.99 18 1.98 18 3 C12.06 2.67 6.12 2.34 0 2 C0 1.34 0 0.68 0 0 Z " fill="#C8DFF3" transform="translate(204,114)"/>
<path d="M0 0 C0.99 0.33 1.98 0.66 3 1 C0.36 4.3 -2.28 7.6 -5 11 C-5.66 10.67 -6.32 10.34 -7 10 C-5.33248852 6.05860922 -2.77289351 3.2107188 0 0 Z " fill="#D5D2D0" transform="translate(280,268)"/>
<path d="M0 0 C2.31 0 4.62 0 7 0 C7 1.65 7 3.3 7 5 C4.69 5 2.38 5 0 5 C0 3.35 0 1.7 0 0 Z " fill="#427A5D" transform="translate(483,261)"/>
<path d="M0 0 C2.31 0 4.62 0 7 0 C7 1.65 7 3.3 7 5 C4.69 5 2.38 5 0 5 C0 3.35 0 1.7 0 0 Z " fill="#427A5D" transform="translate(483,255)"/>
<path d="M0 0 C0.99 0 1.98 0 3 0 C2.34 4.29 1.68 8.58 1 13 C-0.32 12.01 -1.64 11.02 -3 10 C-2.21302675 6.58978257 -1.12880057 3.31114834 0 0 Z " fill="#5878AA" transform="translate(499,183)"/>
<path d="M0 0 C2.64 0 5.28 0 8 0 C8.66 1.32 9.32 2.64 10 4 C7.03 4 4.06 4 1 4 C0.67 2.68 0.34 1.36 0 0 Z " fill="#FAFAFA" transform="translate(381,285)"/>
<path d="M0 0 C2.64 0 5.28 0 8 0 C8.66 1.32 9.32 2.64 10 4 C7.03 4 4.06 4 1 4 C0.67 2.68 0.34 1.36 0 0 Z " fill="#FAFAFA" transform="translate(371,285)"/>
<path d="M0 0 C2.00841268 0.01421885 4.01537247 0.13420475 6.01953125 0.265625 C5.35953125 1.585625 4.69953125 2.905625 4.01953125 4.265625 C1.04953125 4.265625 -1.92046875 4.265625 -4.98046875 4.265625 C-3.72152968 1.74774686 -2.88459378 0.38688832 0 0 Z " fill="#FAFAFA" transform="translate(270.98046875,284.734375)"/>
<path d="M0 0 C5.37305699 -0.35233161 5.37305699 -0.35233161 8 0 C10 2 10 2 11 4 C8.03 4 5.06 4 2 4 C1.34 2.68 0.68 1.36 0 0 Z " fill="#FBFBFB" transform="translate(400,285)"/>
<path d="M0 0 C2.64 0 5.28 0 8 0 C8.66 1.32 9.32 2.64 10 4 C7.03 4 4.06 4 1 4 C0.67 2.68 0.34 1.36 0 0 Z " fill="#FBFBFB" transform="translate(391,285)"/>
<path d="M0 0 C2.64 0 5.28 0 8 0 C7.67 1.32 7.34 2.64 7 4 C4.36 4 1.72 4 -1 4 C-0.67 2.68 -0.34 1.36 0 0 Z " fill="#FAFAFA" transform="translate(288,285)"/>
<path d="M0 0 C2.64 0 5.28 0 8 0 C7.34 1.32 6.68 2.64 6 4 C3.36 4 0.72 4 -2 4 C-1.34 2.68 -0.68 1.36 0 0 Z " fill="#FAFAFA" transform="translate(279,285)"/>
<path d="M0 0 C1.32 0 2.64 0 4 0 C3.343621 4.48525648 2.29925791 8.66914029 1 13 C0.67 13 0.34 13 0 13 C-1.28571429 4.57142857 -1.28571429 4.57142857 0 0 Z " fill="#DF9586" transform="translate(196,253)"/>
<path d="M0 0 C2.64 0 5.28 0 8 0 C8 1.32 8 2.64 8 4 C5.36 4 2.72 4 0 4 C0 2.68 0 1.36 0 0 Z " fill="#2E6E4C" transform="translate(491,250)"/>
<path d="M0 0 C2.64 0 5.28 0 8 0 C8 1.32 8 2.64 8 4 C5.36 4 2.72 4 0 4 C0 2.68 0 1.36 0 0 Z " fill="#337A55" transform="translate(491,244)"/>
<path d="M0 0 C2.86724686 0.57344937 3.8614515 0.8614515 6 3 C6 3.99 6 4.98 6 6 C4.02 6 2.04 6 0 6 C0 4.02 0 2.04 0 0 Z " fill="#F9EDEA" transform="translate(215,247)"/>
<path d="M0 0 C2.31 0 4.62 0 7 0 C7 1.32 7 2.64 7 4 C4.69 4 2.38 4 0 4 C0 2.68 0 1.36 0 0 Z " fill="#266744" transform="translate(492,267)"/>
<path d="M0 0 C2.31 0 4.62 0 7 0 C7 1.32 7 2.64 7 4 C4.69 4 2.38 4 0 4 C0 2.68 0 1.36 0 0 Z " fill="#2F6D4C" transform="translate(483,267)"/>
<path d="M0 0 C2.31 0 4.62 0 7 0 C7 1.32 7 2.64 7 4 C4.69 4 2.38 4 0 4 C0 2.68 0 1.36 0 0 Z " fill="#2F6E4D" transform="translate(483,250)"/>
<path d="M0 0 C2.31 0 4.62 0 7 0 C7 1.32 7 2.64 7 4 C4.69 4 2.38 4 0 4 C0 2.68 0 1.36 0 0 Z " fill="#316F4F" transform="translate(483,244)"/>
<path d="M0 0 C1.32 0 2.64 0 4 0 C4.66 2.64 5.32 5.28 6 8 C3 7 3 7 1 5 C0.34 4.67 -0.32 4.34 -1 4 C-0.67 2.68 -0.34 1.36 0 0 Z " fill="#96373A" transform="translate(165,188)"/>
<path d="M0 0 C1.32 0 2.64 0 4 0 C4 1.65 4 3.3 4 5 C5.65 5 7.3 5 9 5 C9.33 5.99 9.66 6.98 10 8 C7.69 8 5.38 8 3 8 C3 5.69 3 3.38 3 1 C2.01 0.67 1.02 0.34 0 0 Z " fill="#A3B8AD" transform="translate(480,236)"/>
<path d="M0 0 C2.3125 -0.25 2.3125 -0.25 5 0 C6.8125 2 6.8125 2 8 4 C5.36 4 2.72 4 0 4 C0 2.68 0 1.36 0 0 Z " fill="#CECFD0" transform="translate(508,175)"/>
<path d="M0 0 C1.98 0 3.96 0 6 0 C5.34 1.32 4.68 2.64 4 4 C2.02 4 0.04 4 -2 4 C-1.34 2.68 -0.68 1.36 0 0 Z " fill="#F4F4F4" transform="translate(299,269)"/>
<path d="M0 0 C2.31 0 4.62 0 7 0 C5.875 2 5.875 2 4 4 C0.8125 4.25 0.8125 4.25 -2 4 C-1.34 2.68 -0.68 1.36 0 0 Z " fill="#F4F4F4" transform="translate(282,269)"/>
<path d="M0 0 C1.32 0 2.64 0 4 0 C4.33 1.32 4.66 2.64 5 4 C5.66 4 6.32 4 7 4 C7 4.66 7 5.32 7 6 C5.68 6.33 4.36 6.66 3 7 C0 2.25 0 2.25 0 0 Z " fill="#448764" transform="translate(463,250)"/>
<path d="M0 0 C0.33 0 0.66 0 1 0 C1.01417969 0.58007812 1.02835938 1.16015625 1.04296875 1.7578125 C1.41539502 7.85755082 2.67989602 10.67989602 7 15 C4.625 14.6875 4.625 14.6875 2 14 C-0.28062828 10.57905758 -0.21925007 9.31812778 -0.125 5.3125 C-0.10695312 4.31863281 -0.08890625 3.32476562 -0.0703125 2.30078125 C-0.04710937 1.54152344 -0.02390625 0.78226563 0 0 Z " fill="#D9C5C4" transform="translate(249,215)"/>
<path d="M0 0 C2.64 0 5.28 0 8 0 C8.33 0.99 8.66 1.98 9 3 C6.36 3 3.72 3 1 3 C0.67 2.01 0.34 1.02 0 0 Z " fill="#FAFAFA" transform="translate(367,281)"/>
<path d="M0 0 C2.64 0 5.28 0 8 0 C8 0.99 8 1.98 8 3 C5.36 3 2.72 3 0 3 C0 2.01 0 1.02 0 0 Z " fill="#FAFAFA" transform="translate(358,281)"/>
<path d="M0 0 C2.64 0 5.28 0 8 0 C8 0.99 8 1.98 8 3 C5.36 3 2.72 3 0 3 C0 2.01 0 1.02 0 0 Z " fill="#FAF9F9" transform="translate(349,281)"/>
<path d="M0 0 C2.64 0 5.28 0 8 0 C8 0.99 8 1.98 8 3 C5.36 3 2.72 3 0 3 C0 2.01 0 1.02 0 0 Z " fill="#FAFAFA" transform="translate(330,281)"/>
<path d="M0 0 C2.64 0 5.28 0 8 0 C7.67 0.99 7.34 1.98 7 3 C4.36 3 1.72 3 -1 3 C-0.67 2.01 -0.34 1.02 0 0 Z " fill="#FAF9F9" transform="translate(293,281)"/>
<path d="M0 0 C1.98 0 3.96 0 6 0 C5.34 1.32 4.68 2.64 4 4 C2.02 4 0.04 4 -2 4 C-2 3.34 -2 2.68 -2 2 C-1.34 2 -0.68 2 0 2 C0 1.34 0 0.68 0 0 Z " fill="#F5F5F5" transform="translate(315,269)"/>
<path d="M0 0 C1.98 0 3.96 0 6 0 C5.34 1.32 4.68 2.64 4 4 C2.02 4 0.04 4 -2 4 C-2 3.34 -2 2.68 -2 2 C-1.34 2 -0.68 2 0 2 C0 1.34 0 0.68 0 0 Z " fill="#F5F5F5" transform="translate(307,269)"/>
<path d="M0 0 C2.31 0 4.62 0 7 0 C7.33 0.99 7.66 1.98 8 3 C5.36 3 2.72 3 0 3 C0 2.01 0 1.02 0 0 Z " fill="#FAFAFA" transform="translate(377,281)"/>
<path d="M0 0 C2.31 0 4.62 0 7 0 C7 0.99 7 1.98 7 3 C4.36 3 1.72 3 -1 3 C-0.67 2.01 -0.34 1.02 0 0 Z " fill="#FBFAFA" transform="translate(312,281)"/>
<path d="M0 0 C2.31 0 4.62 0 7 0 C7 0.99 7 1.98 7 3 C4.36 3 1.72 3 -1 3 C-0.67 2.01 -0.34 1.02 0 0 Z " fill="#FAFAFA" transform="translate(303,281)"/>
<path d="M0 0 C2.31 0 4.62 0 7 0 C7.33 0.99 7.66 1.98 8 3 C5.69 3 3.38 3 1 3 C0.67 2.01 0.34 1.02 0 0 Z " fill="#F8F8F8" transform="translate(379,277)"/>
<path d="M0 0 C2.31 0 4.62 0 7 0 C7.33 0.99 7.66 1.98 8 3 C5.69 3 3.38 3 1 3 C0.67 2.01 0.34 1.02 0 0 Z " fill="#F8F8F8" transform="translate(370,277)"/>
<path d="M0 0 C2.31 0 4.62 0 7 0 C6.67 0.99 6.34 1.98 6 3 C3.69 3 1.38 3 -1 3 C-0.67 2.01 -0.34 1.02 0 0 Z " fill="#F8F8F8" transform="translate(309,277)"/>
<path d="M0 0 C2.31 0 4.62 0 7 0 C6.67 0.99 6.34 1.98 6 3 C3.69 3 1.38 3 -1 3 C-0.67 2.01 -0.34 1.02 0 0 Z " fill="#F8F8F8" transform="translate(300,277)"/>
<path d="M0 0 C2.31 0 4.62 0 7 0 C6.67 0.99 6.34 1.98 6 3 C3.69 3 1.38 3 -1 3 C-0.67 2.01 -0.34 1.02 0 0 Z " fill="#F8F8F8" transform="translate(291,277)"/>
<path d="M0 0 C1.32 0 2.64 0 4 0 C4 0.66 4 1.32 4 2 C3.34 2 2.68 2 2 2 C1.67 3.32 1.34 4.64 1 6 C0.01 6 -0.98 6 -2 6 C-1.125 1.125 -1.125 1.125 0 0 Z " fill="#448664" transform="translate(466,259)"/>
<path d="M0 0 C2.31 0 4.62 0 7 0 C7 0.99 7 1.98 7 3 C4.69 3 2.38 3 0 3 C0 2.01 0 1.02 0 0 Z " fill="#FCFCFC" transform="translate(340,281)"/>
<path d="M0 0 C2.31 0 4.62 0 7 0 C7 0.99 7 1.98 7 3 C4.69 3 2.38 3 0 3 C0 2.01 0 1.02 0 0 Z " fill="#FCFCFC" transform="translate(321,281)"/>
<path d="M0 0 C2.31 0 4.62 0 7 0 C7 0.99 7 1.98 7 3 C4.69 3 2.38 3 0 3 C0 2.01 0 1.02 0 0 Z " fill="#F9F9F9" transform="translate(353,277)"/>
<path d="M0 0 C2.31 0 4.62 0 7 0 C7 0.99 7 1.98 7 3 C4.69 3 2.38 3 0 3 C0 2.01 0 1.02 0 0 Z " fill="#F9F9F9" transform="translate(344,277)"/>
<path d="M0 0 C2.31 0 4.62 0 7 0 C7 0.99 7 1.98 7 3 C4.69 3 2.38 3 0 3 C0 2.01 0 1.02 0 0 Z " fill="#F9F9F9" transform="translate(335,277)"/>
<path d="M0 0 C2.31 0 4.62 0 7 0 C7 0.99 7 1.98 7 3 C4.69 3 2.38 3 0 3 C0 2.01 0 1.02 0 0 Z " fill="#F9F9F9" transform="translate(326,277)"/>
<path d="M0 0 C2.31 0 4.62 0 7 0 C7 0.99 7 1.98 7 3 C4.69 3 2.38 3 0 3 C0 2.01 0 1.02 0 0 Z " fill="#F9F8F9" transform="translate(317,277)"/>
<path d="M0 0 C0.33 0.66 0.66 1.32 1 2 C-1.64 2.33 -4.28 2.66 -7 3 C-7.66 4.65 -8.32 6.3 -9 8 C-9.33 8 -9.66 8 -10 8 C-10.04254356 6.00045254 -10.04080783 3.99958364 -10 2 C-8.41727399 0.41727399 -6.61965997 0.65264253 -4.4375 0.4375 C-3.19806641 0.31181641 -3.19806641 0.31181641 -1.93359375 0.18359375 C-0.97646484 0.09271484 -0.97646484 0.09271484 0 0 Z " fill="#D5D3D3" transform="translate(320,246)"/>
<path d="M0 0 C1.98 0 3.96 0 6 0 C6.33 0.99 6.66 1.98 7 3 C4.69 3 2.38 3 0 3 C0 2.01 0 1.02 0 0 Z " fill="#F9F9F9" transform="translate(362,277)"/>
<path d="M0 0 C1.98 0 3.96 0 6 0 C6 0.99 6 1.98 6 3 C4.02 3 2.04 3 0 3 C0 2.01 0 1.02 0 0 Z " fill="#185F39" transform="translate(492,262)"/>
<path d="M0 0 C1.98 0 3.96 0 6 0 C6 0.99 6 1.98 6 3 C4.02 3 2.04 3 0 3 C0 2.01 0 1.02 0 0 Z " fill="#185F39" transform="translate(492,256)"/>
<path d="M0 0 C0.99 0 1.98 0 3 0 C3 1.98 3 3.96 3 6 C2.01 6 1.02 6 0 6 C0 4.02 0 2.04 0 0 Z " fill="#3D649F" transform="translate(489,193)"/>
</svg>
